<?xml version="1.0" encoding="utf-8"?>
<!-- Generator: Adobe Illustrator 27.5.0, SVG Export Plug-In . SVG Version: 6.00 Build 0)  -->
<svg version="1.1" xmlns="http://www.w3.org/2000/svg" xmlns:xlink="http://www.w3.org/1999/xlink" x="0px" y="0px"
	 viewBox="0 0 500 500" style="enable-background:new 0 0 500 500;" xml:space="preserve">
<g id="Background_Simple">
	<g>
		<path style="fill:#92E3A9;" d="M457,228.183c0,0-6-99.136-85-147.315c-36.934-22.525-82.425-36.744-127.389-36.868
			c-44.612-0.124-91.528,15.635-113.561,53.755c-14.177,24.528-16.328,51.944-23.562,78.372
			C90.255,239.085-0.038,278.059,22.954,351.566c6.781,21.679,24.077,39.565,44.4,52.011c46.04,28.197,105.207,36.56,159.234,38.401
			c43.216,1.472,89.819-4.093,129.462-20.608c38.457-16.02,67.692-46.132,84.676-81.538
			C458.286,303.227,459.335,267.305,457,228.183z"/>
		<path style="opacity:0.7;fill:#FFFFFF;" d="M457,228.183c0,0-6-99.136-85-147.315c-36.934-22.525-82.425-36.744-127.389-36.868
			c-44.612-0.124-91.528,15.635-113.561,53.755c-14.177,24.528-16.328,51.944-23.562,78.372
			C90.255,239.085-0.038,278.059,22.954,351.566c6.781,21.679,24.077,39.565,44.4,52.011c46.04,28.197,105.207,36.56,159.234,38.401
			c43.216,1.472,89.819-4.093,129.462-20.608c38.457-16.02,67.692-46.132,84.676-81.538
			C458.286,303.227,459.335,267.305,457,228.183z"/>
	</g>
</g>
<g id="Plants">
	<g>
		<path style="fill:#263238;" d="M78.363,377.471c1.76,0.769,6.064,0.672,6.068,0.672c0.045-0.001-0.925-2.818-1.007-2.989
			c-0.944-1.976-3.931-5.238-6.361-4.91c-1.751,0.237-2.725,1.989-2.329,3.637C75.137,375.565,76.864,376.816,78.363,377.471z"/>
		<path style="fill:#263238;" d="M79.848,389.94c1.826,0.266,5.667-0.848,5.973-0.938c0.607,2.151,1.403,4.308,2.33,6.447
			c0.528,1.224,1.099,2.439,1.686,3.651c-0.35-0.513-0.668-0.97-0.719-1.029c-1.433-1.656-5.175-4.014-7.432-3.055
			c-1.627,0.69-2.103,2.637-1.286,4.123c0.833,1.517,2.83,2.268,4.449,2.503c1.642,0.24,4.937-0.645,5.806-0.89
			c0.23,0.463,0.455,0.927,0.687,1.388c1.112,2.215,2.232,4.421,3.264,6.618c0.364,0.774,0.694,1.55,1.027,2.325
			c-0.312-0.456-0.578-0.837-0.625-0.891c-1.433-1.656-5.175-4.014-7.432-3.055c-1.626,0.691-2.103,2.638-1.286,4.123
			c0.834,1.517,2.83,2.268,4.449,2.503c1.567,0.229,4.615-0.56,5.649-0.847c0.317,0.804,0.636,1.608,0.907,2.402
			c0.173,0.546,0.378,1.059,0.52,1.617c0.154,0.549,0.305,1.093,0.455,1.632c0.252,1.048,0.517,2.127,0.737,3.156
			c0.158,0.714,0.296,1.397,0.436,2.086c-0.353-0.775-1.077-2.277-1.152-2.396c-1.165-1.854-4.507-4.751-6.884-4.146
			c-1.712,0.436-2.478,2.289-1.895,3.881c0.594,1.626,2.454,2.67,4.018,3.148c1.722,0.526,5.535,0.045,6.011-0.018
			c0.228,1.139,0.44,2.25,0.623,3.301c0.409,2.319,0.717,4.398,0.952,6.158h1.608c-0.28-1.82-0.647-3.989-1.131-6.424
			c-0.227-1.158-0.493-2.39-0.779-3.654c0.287-0.114,1.913-0.772,3.354-1.577c1.255,1.359,4.471,2.95,4.888,3.152
			c-0.438,1.077-0.874,2.119-1.301,3.096c-0.889,2.047-1.734,3.862-2.48,5.406h1.738c0.641-1.423,1.346-3.044,2.08-4.841
			c0.449-1.091,0.907-2.266,1.366-3.477c0.461,0.096,4.236,0.863,5.995,0.466c1.595-0.361,3.528-1.263,4.242-2.84
			c0.699-1.544,0.073-3.448-1.602-4.011c-2.324-0.781-5.873,1.859-7.173,3.621c-0.077,0.104-0.783,1.325-1.216,2.102
			c0.185-0.496,0.37-0.975,0.554-1.488c0.372-1.011,0.712-2.031,1.082-3.128c0.16-0.536,0.322-1.077,0.486-1.623
			c0.173-0.539,0.288-1.129,0.437-1.699c0.316-1.328,0.572-2.688,0.799-4.064c0.886,0.322,4.05,1.423,5.689,1.308
			c1.632-0.115,3.678-0.714,4.623-2.165c0.925-1.42,0.595-3.398-0.975-4.208c-2.18-1.124-6.087,0.948-7.64,2.493
			c-0.097,0.096-1.086,1.33-1.616,2.018c0.13-0.828,0.264-1.655,0.368-2.497c0.302-2.432,0.532-4.902,0.772-7.366
			c0.073-0.755,0.155-1.506,0.234-2.258c0.314,0.118,4.047,1.508,5.883,1.379c1.632-0.114,3.678-0.714,4.623-2.165
			c0.925-1.42,0.595-3.398-0.975-4.207c-2.179-1.124-6.087,0.948-7.639,2.493c-0.117,0.116-1.538,1.894-1.877,2.363
			c0.175-1.657,0.365-3.306,0.618-4.924c0.346-2.233,0.809-4.405,1.414-6.477c0.146,0.056,4.035,1.523,5.915,1.391
			c1.632-0.115,3.679-0.714,4.623-2.165c0.925-1.42,0.595-3.397-0.975-4.207c-2.18-1.124-6.087,0.948-7.639,2.493
			c-0.121,0.121-1.649,2.034-1.901,2.401c0.036-0.123,0.06-0.255,0.098-0.377c0.673-2.203,1.602-4.252,2.566-6.129
			c0.558-1.091,1.152-2.103,1.752-3.075c0.697,0.348,3.896,1.901,5.601,1.97c1.634,0.065,3.735-0.306,4.833-1.644
			c1.076-1.31,0.965-3.312-0.507-4.289c-2.043-1.357-6.154,0.274-7.867,1.639c-0.093,0.074-0.956,0.934-1.576,1.569
			c0.277-0.435,0.556-0.888,0.83-1.298c1.026-1.545,2.061-2.897,2.987-4.086c0.532-0.672,1.026-1.269,1.495-1.823
			c0.861-0.015,4.331-0.121,5.848-0.833c1.48-0.695,3.174-1.992,3.532-3.686c0.35-1.659-0.67-3.384-2.427-3.573
			c-2.438-0.263-5.336,3.079-6.227,5.079c-0.077,0.173-0.97,3.015-0.925,3.015c0,0,0.042,0,0.052-0.001
			c-0.462,0.524-0.95,1.091-1.472,1.721c-0.954,1.172-2.021,2.504-3.084,4.033c-1.067,1.525-2.183,3.212-3.198,5.094
			c-1.02,1.886-1.997,3.922-2.732,6.15c-0.008,0.025-0.014,0.052-0.022,0.078c0.013-0.718-0.019-2.728-0.039-2.882
			c-0.282-2.172-2.102-6.203-4.514-6.649c-1.737-0.321-3.209,1.04-3.347,2.73c-0.141,1.726,1.11,3.452,2.33,4.542
			c1.376,1.229,5.195,2.419,5.499,2.513c-0.681,2.128-1.206,4.367-1.613,6.662c-0.234,1.312-0.429,2.641-0.608,3.976
			c-0.009-0.622-0.022-1.177-0.032-1.255c-0.282-2.172-2.102-6.203-4.514-6.648c-1.738-0.321-3.209,1.04-3.347,2.729
			c-0.142,1.725,1.11,3.452,2.329,4.542c1.238,1.105,4.473,2.186,5.333,2.46c-0.063,0.513-0.132,1.024-0.193,1.537
			c-0.294,2.461-0.577,4.918-0.928,7.32c-0.123,0.847-0.276,1.676-0.426,2.505c-0.009-0.552-0.021-1.017-0.03-1.087
			c-0.282-2.172-2.102-6.203-4.513-6.649c-1.738-0.321-3.209,1.04-3.348,2.73c-0.141,1.725,1.11,3.452,2.33,4.542
			c1.181,1.055,4.158,2.079,5.179,2.41c-0.179,0.845-0.357,1.692-0.568,2.504c-0.157,0.551-0.27,1.091-0.458,1.636
			c-0.175,0.542-0.348,1.08-0.52,1.612c-0.369,1.013-0.742,2.06-1.126,3.038c-0.262,0.683-0.525,1.329-0.787,1.98
			c0.132-0.841,0.358-2.493,0.361-2.633c0.033-1.455-0.483-3.82-1.511-5.482c0.006-0.215-0.006-0.429-0.04-0.642
			c-0.269-1.674-1.841-2.917-3.549-2.462c-2.37,0.631-3.873,4.791-3.985,6.978c-0.007,0.129,0.078,1.537,0.146,2.424
			c-0.12-0.516-0.229-1.017-0.359-1.546c-0.249-1.048-0.528-2.087-0.823-3.206c-0.162-0.535-0.326-1.075-0.491-1.622
			c-0.152-0.545-0.382-1.101-0.573-1.658c-0.469-1.281-1.006-2.558-1.576-3.831c0.918-0.22,4.164-1.047,5.467-2.048
			c1.298-0.995,2.674-2.625,2.662-4.356c-0.012-1.695-1.378-3.162-3.134-2.972c-2.438,0.265-4.554,4.149-4.997,6.294
			c-0.027,0.134-0.172,1.708-0.235,2.575c-0.349-0.763-0.693-1.526-1.07-2.286c-1.089-2.195-2.26-4.382-3.42-6.57
			c-0.355-0.67-0.701-1.341-1.05-2.012c0.328-0.075,4.207-0.975,5.667-2.095c1.298-0.996,2.674-2.625,2.662-4.356
			c-0.012-1.695-1.378-3.162-3.134-2.971c-2.438,0.265-4.554,4.148-4.997,6.293c-0.033,0.162-0.238,2.428-0.262,3.006
			c-0.768-1.478-1.519-2.958-2.201-4.448c-0.943-2.054-1.755-4.121-2.394-6.182c0.153-0.035,4.206-0.956,5.701-2.103
			c1.298-0.996,2.674-2.625,2.662-4.356c-0.012-1.695-1.378-3.162-3.134-2.971c-2.438,0.265-4.554,4.149-4.996,6.293
			c-0.035,0.169-0.253,2.607-0.261,3.051c-0.038-0.122-0.091-0.245-0.127-0.368c-0.653-2.209-1.009-4.431-1.241-6.528
			c-0.137-1.218-0.199-2.389-0.235-3.531c0.772-0.094,4.299-0.564,5.758-1.448c1.399-0.847,2.946-2.315,3.124-4.037
			c0.174-1.686-1.023-3.295-2.789-3.298c-2.452-0.005-4.982,3.624-5.658,5.707c-0.037,0.113-0.283,1.306-0.449,2.178
			c-0.008-0.515-0.026-1.047-0.024-1.541c0.004-1.854,0.121-3.553,0.237-5.056c0.073-0.854,0.156-1.625,0.241-2.345
			c0.71-0.488,3.546-2.49,4.418-3.921c0.851-1.397,1.548-3.412,0.912-5.022c-0.623-1.577-2.426-2.453-3.995-1.642
			c-2.179,1.126-2.752,5.512-2.392,7.672c0.032,0.186,0.854,3.05,0.892,3.025c0,0,0.035-0.024,0.043-0.03
			c-0.096,0.691-0.19,1.434-0.277,2.248c-0.149,1.504-0.304,3.204-0.348,5.065c-0.048,1.86-0.049,3.883,0.143,6.013
			c0.19,2.135,0.498,4.372,1.114,6.636c0.007,0.025,0.018,0.051,0.025,0.077c-0.386-0.606-1.522-2.265-1.623-2.382
			c-1.433-1.656-5.175-4.014-7.432-3.056c-1.626,0.691-2.103,2.638-1.286,4.124C76.234,388.954,78.23,389.704,79.848,389.94z"/>
		<path style="fill:#263238;" d="M121.903,378.418c0.038,0.024,0.783-2.861,0.809-3.048c0.302-2.169-0.39-6.538-2.598-7.604
			c-1.591-0.769-3.369,0.156-3.949,1.749c-0.592,1.627,0.158,3.623,1.047,4.996C118.256,376.122,121.9,378.416,121.903,378.418z"/>
	</g>
	<g>
		<path style="fill:#263238;" d="M32.559,420.681c1.052,0.46,3.625,0.402,3.628,0.402c0.027-0.001-0.553-1.685-0.602-1.787
			c-0.564-1.181-2.35-3.132-3.803-2.935c-1.047,0.142-1.629,1.189-1.392,2.174C30.631,419.542,31.663,420.289,32.559,420.681z"/>
		<path style="fill:#263238;" d="M33.448,428.135c1.091,0.159,3.388-0.507,3.57-0.561c0.363,1.286,0.839,2.575,1.393,3.854
			c0.316,0.732,0.657,1.458,1.008,2.183c-0.209-0.307-0.399-0.58-0.43-0.615c-0.857-0.99-3.094-2.4-4.443-1.826
			c-0.972,0.413-1.257,1.577-0.769,2.465c0.498,0.907,1.692,1.356,2.659,1.496c0.982,0.143,2.951-0.385,3.471-0.532
			c0.138,0.277,0.272,0.554,0.411,0.83c0.665,1.324,1.334,2.643,1.951,3.956c0.218,0.463,0.415,0.926,0.614,1.39
			c-0.186-0.272-0.346-0.5-0.374-0.533c-0.856-0.99-3.094-2.4-4.443-1.826c-0.972,0.413-1.257,1.577-0.769,2.465
			c0.499,0.907,1.692,1.355,2.66,1.496c0.937,0.137,2.759-0.335,3.377-0.506c0.19,0.481,0.38,0.962,0.542,1.436
			c0.103,0.326,0.226,0.633,0.311,0.967c0.092,0.329,0.182,0.654,0.272,0.976c0.15,0.626,0.309,1.272,0.44,1.887
			c0.095,0.427,0.177,0.835,0.261,1.247c-0.211-0.463-0.644-1.361-0.689-1.432c-0.696-1.108-2.694-2.84-4.115-2.478
			c-1.023,0.261-1.481,1.368-1.133,2.32c0.355,0.972,1.467,1.596,2.402,1.882c1.03,0.315,3.309,0.027,3.594-0.011
			c0.137,0.681,0.263,1.345,0.372,1.973c0.244,1.386,0.429,2.629,0.569,3.681h0.961c-0.168-1.088-0.387-2.385-0.676-3.841
			c-0.136-0.692-0.295-1.429-0.465-2.184c0.171-0.068,1.144-0.461,2.005-0.943c0.75,0.813,2.673,1.764,2.922,1.885
			c-0.261,0.644-0.522,1.267-0.778,1.851c-0.532,1.224-1.037,2.309-1.482,3.232h1.039c0.383-0.851,0.805-1.82,1.244-2.894
			c0.268-0.652,0.542-1.355,0.817-2.078c0.276,0.058,2.532,0.516,3.584,0.279c0.954-0.216,2.109-0.755,2.536-1.698
			c0.418-0.923,0.044-2.061-0.958-2.398c-1.389-0.467-3.511,1.111-4.288,2.165c-0.046,0.062-0.468,0.792-0.727,1.257
			c0.111-0.296,0.221-0.583,0.331-0.889c0.222-0.604,0.425-1.214,0.647-1.87c0.096-0.32,0.193-0.644,0.29-0.97
			c0.104-0.322,0.172-0.675,0.261-1.016c0.189-0.794,0.342-1.607,0.478-2.43c0.53,0.193,2.421,0.851,3.401,0.782
			c0.976-0.069,2.199-0.427,2.764-1.294c0.553-0.849,0.356-2.031-0.583-2.515c-1.303-0.672-3.639,0.567-4.567,1.491
			c-0.058,0.057-0.649,0.795-0.966,1.206c0.078-0.495,0.158-0.989,0.22-1.493c0.181-1.454,0.318-2.931,0.462-4.404
			c0.044-0.451,0.093-0.9,0.14-1.35c0.188,0.071,2.419,0.901,3.517,0.824c0.975-0.068,2.199-0.427,2.764-1.294
			c0.553-0.849,0.356-2.031-0.583-2.515c-1.303-0.672-3.639,0.567-4.567,1.49c-0.07,0.07-0.919,1.132-1.122,1.413
			c0.105-0.991,0.218-1.976,0.369-2.944c0.207-1.335,0.484-2.634,0.845-3.872c0.087,0.033,2.412,0.911,3.536,0.832
			c0.975-0.069,2.199-0.427,2.764-1.294c0.553-0.849,0.356-2.031-0.583-2.515c-1.303-0.672-3.639,0.567-4.567,1.49
			c-0.073,0.073-0.986,1.216-1.137,1.435c0.022-0.074,0.036-0.152,0.058-0.225c0.403-1.317,0.958-2.542,1.534-3.664
			c0.333-0.652,0.689-1.257,1.048-1.838c0.416,0.208,2.329,1.137,3.348,1.177c0.977,0.039,2.233-0.183,2.889-0.983
			c0.643-0.783,0.577-1.98-0.303-2.564c-1.222-0.811-3.679,0.164-4.703,0.98c-0.056,0.044-0.571,0.558-0.942,0.938
			c0.166-0.26,0.332-0.531,0.496-0.776c0.613-0.924,1.232-1.732,1.785-2.443c0.318-0.402,0.613-0.759,0.894-1.09
			c0.515-0.009,2.589-0.072,3.496-0.498c0.885-0.416,1.897-1.191,2.111-2.204c0.209-0.992-0.401-2.023-1.451-2.136
			c-1.458-0.157-3.19,1.84-3.723,3.036c-0.046,0.104-0.58,1.803-0.553,1.802c0,0,0.025,0,0.031,0
			c-0.276,0.313-0.568,0.652-0.88,1.029c-0.57,0.701-1.208,1.497-1.844,2.411c-0.638,0.912-1.305,1.92-1.912,3.046
			c-0.61,1.128-1.194,2.345-1.633,3.676c-0.005,0.015-0.008,0.031-0.013,0.046c0.008-0.43-0.011-1.631-0.023-1.723
			c-0.168-1.298-1.256-3.708-2.698-3.975c-1.039-0.192-1.918,0.622-2.001,1.632c-0.084,1.032,0.663,2.064,1.393,2.716
			c0.822,0.734,3.105,1.446,3.287,1.502c-0.407,1.272-0.721,2.611-0.965,3.983c-0.14,0.784-0.257,1.579-0.363,2.377
			c-0.005-0.372-0.013-0.704-0.019-0.75c-0.168-1.299-1.257-3.708-2.698-3.975c-1.039-0.192-1.918,0.622-2.001,1.632
			c-0.085,1.032,0.663,2.064,1.392,2.715c0.74,0.661,2.674,1.307,3.188,1.471c-0.038,0.307-0.079,0.612-0.115,0.919
			c-0.176,1.471-0.345,2.94-0.555,4.376c-0.074,0.506-0.165,1.002-0.254,1.498c-0.005-0.33-0.012-0.608-0.018-0.65
			c-0.168-1.298-1.256-3.708-2.698-3.975c-1.039-0.192-1.919,0.622-2.001,1.632c-0.085,1.031,0.664,2.064,1.393,2.715
			c0.706,0.631,2.486,1.243,3.096,1.441c-0.107,0.505-0.213,1.012-0.34,1.497c-0.094,0.329-0.161,0.652-0.274,0.978
			c-0.105,0.324-0.208,0.646-0.311,0.964c-0.221,0.605-0.444,1.231-0.673,1.816c-0.157,0.408-0.314,0.794-0.47,1.184
			c0.079-0.503,0.214-1.49,0.216-1.574c0.02-0.87-0.289-2.283-0.903-3.277c0.004-0.128-0.004-0.256-0.024-0.384
			c-0.161-1-1.101-1.744-2.122-1.472c-1.417,0.377-2.315,2.864-2.382,4.171c-0.004,0.077,0.047,0.919,0.087,1.449
			c-0.072-0.308-0.137-0.608-0.214-0.924c-0.149-0.627-0.315-1.247-0.492-1.917c-0.097-0.32-0.195-0.643-0.293-0.969
			c-0.091-0.326-0.228-0.658-0.342-0.991c-0.28-0.766-0.601-1.529-0.942-2.29c0.549-0.131,2.489-0.626,3.268-1.224
			c0.776-0.595,1.598-1.569,1.591-2.604c-0.007-1.013-0.824-1.891-1.874-1.776c-1.458,0.158-2.722,2.48-2.987,3.762
			c-0.017,0.08-0.103,1.021-0.14,1.539c-0.208-0.456-0.414-0.912-0.64-1.367c-0.651-1.312-1.351-2.62-2.044-3.927
			c-0.212-0.4-0.419-0.802-0.628-1.203c0.196-0.045,2.515-0.583,3.388-1.253c0.776-0.595,1.598-1.569,1.591-2.604
			c-0.007-1.013-0.824-1.89-1.874-1.776c-1.458,0.158-2.722,2.48-2.987,3.762c-0.02,0.097-0.142,1.451-0.156,1.797
			c-0.459-0.883-0.908-1.769-1.316-2.659c-0.564-1.228-1.049-2.463-1.431-3.695c0.091-0.021,2.514-0.572,3.408-1.257
			c0.776-0.595,1.599-1.569,1.591-2.604c-0.007-1.013-0.824-1.89-1.874-1.776c-1.458,0.158-2.722,2.48-2.987,3.762
			c-0.021,0.101-0.152,1.558-0.156,1.824c-0.023-0.073-0.054-0.146-0.076-0.22c-0.391-1.321-0.604-2.649-0.742-3.902
			c-0.082-0.728-0.119-1.428-0.14-2.111c0.462-0.056,2.57-0.337,3.442-0.865c0.837-0.507,1.761-1.384,1.868-2.413
			c0.104-1.008-0.611-1.97-1.667-1.971c-1.466-0.003-2.978,2.166-3.382,3.411c-0.022,0.068-0.169,0.781-0.269,1.302
			c-0.005-0.308-0.016-0.626-0.014-0.921c0.002-1.108,0.072-2.124,0.141-3.022c0.044-0.511,0.093-0.972,0.144-1.402
			c0.424-0.292,2.12-1.489,2.641-2.344c0.509-0.835,0.925-2.04,0.545-3.003c-0.372-0.943-1.45-1.466-2.388-0.981
			c-1.302,0.673-1.645,3.295-1.43,4.586c0.019,0.112,0.511,1.823,0.533,1.809c0,0,0.021-0.014,0.025-0.018
			c-0.057,0.413-0.114,0.857-0.166,1.344c-0.089,0.899-0.182,1.915-0.208,3.028c-0.029,1.112-0.029,2.321,0.086,3.595
			c0.113,1.277,0.298,2.614,0.666,3.967c0.004,0.015,0.01,0.031,0.015,0.046c-0.231-0.362-0.91-1.354-0.97-1.424
			c-0.856-0.99-3.094-2.4-4.443-1.827c-0.972,0.413-1.257,1.577-0.769,2.465C31.287,427.545,32.48,427.994,33.448,428.135z"/>
		<path style="fill:#263238;" d="M58.588,421.247c0.023,0.014,0.468-1.71,0.484-1.822c0.18-1.297-0.233-3.908-1.553-4.546
			c-0.951-0.46-2.014,0.093-2.361,1.046c-0.354,0.972,0.095,2.166,0.626,2.987C56.408,419.875,58.587,421.246,58.588,421.247z"/>
	</g>
	<g>
		<path style="fill:#263238;" d="M404.957,317.627c-1.76,0.769-6.064,0.672-6.068,0.672c-0.044-0.001,0.925-2.818,1.007-2.989
			c0.944-1.976,3.931-5.238,6.362-4.91c1.751,0.237,2.724,1.989,2.329,3.637C408.183,315.721,406.456,316.971,404.957,317.627z"/>
		<path style="fill:#263238;" d="M403.471,330.095c-1.826,0.266-5.667-0.848-5.973-0.938c-0.607,2.151-1.403,4.308-2.33,6.447
			c-0.528,1.224-1.099,2.439-1.686,3.651c0.35-0.513,0.667-0.97,0.719-1.029c1.433-1.656,5.175-4.014,7.432-3.055
			c1.627,0.69,2.103,2.637,1.286,4.123c-0.833,1.517-2.83,2.268-4.449,2.503c-1.642,0.24-4.937-0.645-5.806-0.89
			c-0.23,0.463-0.455,0.927-0.687,1.388c-1.112,2.215-2.232,4.421-3.264,6.618c-0.364,0.774-0.694,1.55-1.027,2.325
			c0.312-0.456,0.578-0.837,0.625-0.891c1.433-1.656,5.175-4.014,7.432-3.055c1.626,0.691,2.103,2.638,1.286,4.123
			c-0.834,1.517-2.83,2.268-4.449,2.503c-1.567,0.229-4.615-0.56-5.649-0.847c-0.317,0.804-0.636,1.608-0.907,2.402
			c-0.173,0.546-0.378,1.059-0.52,1.617c-0.154,0.549-0.305,1.093-0.455,1.632c-0.251,1.048-0.517,2.127-0.737,3.156
			c-0.158,0.714-0.296,1.397-0.436,2.086c0.353-0.775,1.077-2.277,1.152-2.396c1.165-1.854,4.507-4.751,6.884-4.146
			c1.712,0.436,2.478,2.289,1.895,3.881c-0.594,1.626-2.454,2.67-4.018,3.148c-1.722,0.526-5.535,0.045-6.011-0.018
			c-0.229,1.139-0.44,2.25-0.623,3.301c-0.409,2.319-0.717,4.398-0.952,6.158h-1.608c0.28-1.82,0.647-3.989,1.131-6.424
			c0.227-1.158,0.493-2.39,0.779-3.654c-0.287-0.114-1.913-0.772-3.354-1.577c-1.255,1.359-4.471,2.95-4.888,3.152
			c0.438,1.077,0.874,2.119,1.301,3.096c0.889,2.047,1.734,3.862,2.48,5.406h-1.738c-0.641-1.423-1.346-3.044-2.081-4.841
			c-0.449-1.091-0.907-2.266-1.366-3.477c-0.461,0.096-4.236,0.863-5.995,0.466c-1.595-0.361-3.528-1.263-4.242-2.84
			c-0.699-1.544-0.073-3.448,1.602-4.011c2.324-0.781,5.873,1.859,7.173,3.622c0.077,0.104,0.783,1.325,1.216,2.102
			c-0.185-0.496-0.37-0.975-0.554-1.488c-0.372-1.011-0.712-2.031-1.082-3.128c-0.16-0.536-0.322-1.077-0.486-1.623
			c-0.173-0.539-0.288-1.129-0.437-1.699c-0.316-1.328-0.572-2.688-0.799-4.064c-0.886,0.322-4.05,1.423-5.689,1.308
			c-1.632-0.115-3.678-0.714-4.623-2.165c-0.925-1.42-0.595-3.398,0.975-4.208c2.18-1.124,6.087,0.948,7.64,2.493
			c0.097,0.096,1.086,1.33,1.616,2.018c-0.13-0.828-0.264-1.655-0.368-2.497c-0.302-2.432-0.531-4.902-0.772-7.366
			c-0.073-0.755-0.155-1.506-0.234-2.258c-0.314,0.118-4.047,1.508-5.883,1.379c-1.632-0.114-3.678-0.714-4.623-2.165
			c-0.925-1.42-0.595-3.398,0.975-4.207c2.18-1.124,6.087,0.948,7.639,2.493c0.117,0.116,1.538,1.894,1.877,2.363
			c-0.175-1.657-0.365-3.306-0.618-4.924c-0.346-2.233-0.809-4.405-1.413-6.477c-0.146,0.056-4.035,1.523-5.915,1.391
			c-1.632-0.115-3.679-0.714-4.623-2.165c-0.925-1.42-0.595-3.397,0.975-4.207c2.18-1.124,6.087,0.948,7.639,2.493
			c0.121,0.121,1.649,2.034,1.901,2.401c-0.036-0.123-0.06-0.255-0.098-0.377c-0.673-2.203-1.602-4.252-2.566-6.129
			c-0.558-1.091-1.152-2.103-1.752-3.075c-0.697,0.348-3.896,1.901-5.601,1.97c-1.634,0.065-3.735-0.306-4.833-1.644
			c-1.076-1.31-0.965-3.312,0.507-4.289c2.043-1.357,6.154,0.274,7.867,1.639c0.093,0.074,0.956,0.934,1.576,1.569
			c-0.277-0.435-0.556-0.888-0.83-1.298c-1.026-1.545-2.061-2.897-2.987-4.086c-0.532-0.672-1.026-1.269-1.495-1.823
			c-0.861-0.015-4.331-0.121-5.848-0.833c-1.48-0.695-3.174-1.992-3.532-3.686c-0.35-1.659,0.67-3.384,2.427-3.573
			c2.438-0.263,5.336,3.079,6.227,5.079c0.077,0.173,0.97,3.015,0.925,3.015c0,0-0.042,0-0.052-0.001
			c0.462,0.524,0.95,1.091,1.472,1.721c0.954,1.172,2.021,2.504,3.084,4.033c1.067,1.525,2.183,3.212,3.198,5.094
			c1.02,1.886,1.997,3.922,2.732,6.15c0.008,0.025,0.014,0.052,0.022,0.078c-0.013-0.718,0.019-2.728,0.039-2.882
			c0.282-2.172,2.102-6.203,4.514-6.649c1.737-0.321,3.209,1.04,3.347,2.73c0.141,1.726-1.11,3.452-2.33,4.542
			c-1.376,1.229-5.194,2.419-5.499,2.513c0.681,2.128,1.206,4.367,1.613,6.662c0.234,1.312,0.429,2.641,0.608,3.976
			c0.009-0.622,0.022-1.177,0.032-1.255c0.282-2.172,2.102-6.203,4.514-6.648c1.737-0.321,3.209,1.04,3.347,2.729
			c0.142,1.725-1.11,3.452-2.329,4.542c-1.238,1.105-4.473,2.186-5.333,2.46c0.063,0.513,0.132,1.024,0.193,1.537
			c0.294,2.461,0.577,4.918,0.928,7.32c0.123,0.847,0.276,1.676,0.426,2.505c0.009-0.552,0.021-1.017,0.03-1.087
			c0.282-2.172,2.102-6.203,4.513-6.649c1.738-0.321,3.209,1.04,3.348,2.73c0.141,1.725-1.11,3.452-2.33,4.542
			c-1.181,1.055-4.158,2.079-5.179,2.41c0.179,0.845,0.357,1.692,0.568,2.504c0.157,0.551,0.27,1.091,0.458,1.636
			c0.175,0.542,0.349,1.08,0.52,1.612c0.369,1.013,0.742,2.06,1.126,3.038c0.262,0.683,0.525,1.329,0.787,1.98
			c-0.132-0.841-0.358-2.493-0.361-2.633c-0.033-1.455,0.483-3.82,1.511-5.482c-0.006-0.215,0.006-0.429,0.04-0.642
			c0.269-1.674,1.841-2.917,3.549-2.462c2.37,0.631,3.873,4.791,3.985,6.978c0.007,0.129-0.078,1.537-0.146,2.424
			c0.12-0.516,0.229-1.017,0.359-1.546c0.249-1.048,0.528-2.087,0.823-3.206c0.162-0.535,0.326-1.075,0.491-1.622
			c0.152-0.545,0.382-1.101,0.573-1.658c0.469-1.281,1.006-2.558,1.576-3.831c-0.918-0.22-4.164-1.047-5.467-2.048
			c-1.298-0.995-2.674-2.625-2.662-4.356c0.012-1.695,1.378-3.162,3.134-2.972c2.438,0.265,4.554,4.149,4.997,6.294
			c0.027,0.134,0.172,1.708,0.235,2.575c0.348-0.763,0.693-1.526,1.07-2.286c1.089-2.195,2.26-4.382,3.42-6.57
			c0.355-0.67,0.701-1.341,1.05-2.012c-0.327-0.075-4.207-0.975-5.667-2.095c-1.298-0.996-2.674-2.625-2.662-4.356
			c0.012-1.695,1.378-3.162,3.134-2.971c2.438,0.265,4.554,4.148,4.997,6.293c0.033,0.162,0.238,2.428,0.262,3.006
			c0.768-1.478,1.519-2.958,2.201-4.448c0.943-2.054,1.755-4.121,2.394-6.182c-0.153-0.035-4.206-0.956-5.702-2.103
			c-1.298-0.996-2.674-2.625-2.661-4.356c0.012-1.695,1.378-3.162,3.134-2.971c2.438,0.265,4.554,4.149,4.996,6.293
			c0.035,0.169,0.253,2.607,0.261,3.051c0.038-0.122,0.091-0.245,0.127-0.368c0.653-2.209,1.009-4.431,1.241-6.528
			c0.137-1.218,0.199-2.389,0.235-3.531c-0.772-0.094-4.299-0.564-5.758-1.448c-1.399-0.847-2.946-2.315-3.124-4.037
			c-0.174-1.686,1.023-3.295,2.789-3.298c2.452-0.005,4.982,3.624,5.658,5.707c0.037,0.113,0.283,1.306,0.449,2.178
			c0.008-0.515,0.026-1.047,0.024-1.541c-0.004-1.854-0.121-3.553-0.237-5.056c-0.073-0.854-0.156-1.625-0.241-2.345
			c-0.71-0.488-3.546-2.49-4.418-3.921c-0.851-1.397-1.548-3.412-0.912-5.022c0.622-1.577,2.426-2.453,3.995-1.642
			c2.179,1.126,2.752,5.512,2.392,7.672c-0.032,0.186-0.854,3.05-0.892,3.025c0,0-0.035-0.024-0.043-0.03
			c0.096,0.691,0.19,1.434,0.277,2.248c0.149,1.504,0.304,3.204,0.348,5.065c0.048,1.86,0.049,3.883-0.143,6.013
			c-0.19,2.135-0.498,4.372-1.114,6.636c-0.007,0.025-0.018,0.051-0.025,0.077c0.386-0.606,1.522-2.265,1.623-2.382
			c1.433-1.656,5.175-4.014,7.432-3.056c1.626,0.691,2.103,2.638,1.286,4.124C407.086,329.109,405.09,329.859,403.471,330.095z"/>
		<path style="fill:#263238;" d="M361.417,318.573c-0.038,0.024-0.783-2.861-0.809-3.048c-0.302-2.169,0.39-6.538,2.598-7.604
			c1.591-0.769,3.369,0.156,3.949,1.749c0.592,1.627-0.158,3.623-1.047,4.996C365.063,316.278,361.419,318.572,361.417,318.573z"/>
	</g>
	<g>
		<path style="fill:#263238;" d="M431.395,343.864c-1.052,0.46-3.625,0.402-3.627,0.402c-0.027-0.001,0.553-1.685,0.602-1.787
			c0.564-1.181,2.35-3.131,3.803-2.935c1.047,0.141,1.629,1.189,1.392,2.174C433.324,342.725,432.292,343.472,431.395,343.864z"/>
		<path style="fill:#263238;" d="M430.507,351.318c-1.091,0.159-3.388-0.507-3.571-0.561c-0.363,1.286-0.839,2.575-1.393,3.854
			c-0.316,0.731-0.657,1.458-1.008,2.183c0.209-0.307,0.399-0.58,0.43-0.615c0.857-0.99,3.094-2.4,4.443-1.826
			c0.973,0.413,1.257,1.577,0.769,2.465c-0.498,0.907-1.692,1.356-2.659,1.496c-0.982,0.143-2.951-0.385-3.471-0.532
			c-0.138,0.277-0.272,0.554-0.41,0.83c-0.665,1.324-1.334,2.643-1.951,3.956c-0.218,0.463-0.415,0.926-0.614,1.39
			c0.186-0.272,0.346-0.5,0.374-0.533c0.857-0.99,3.094-2.4,4.443-1.826c0.972,0.413,1.257,1.577,0.769,2.465
			c-0.499,0.907-1.692,1.356-2.66,1.496c-0.937,0.137-2.759-0.335-3.377-0.506c-0.19,0.481-0.38,0.962-0.542,1.436
			c-0.103,0.326-0.226,0.633-0.311,0.967c-0.092,0.328-0.182,0.654-0.272,0.975c-0.15,0.626-0.309,1.272-0.44,1.887
			c-0.095,0.427-0.177,0.836-0.261,1.247c0.211-0.463,0.644-1.361,0.689-1.432c0.696-1.108,2.694-2.84,4.115-2.478
			c1.023,0.261,1.481,1.368,1.133,2.32c-0.355,0.972-1.467,1.596-2.402,1.882c-1.03,0.315-3.309,0.027-3.594-0.011
			c-0.137,0.681-0.263,1.345-0.372,1.973c-0.244,1.386-0.429,2.629-0.569,3.681h-0.961c0.167-1.088,0.387-2.385,0.676-3.841
			c0.136-0.692,0.295-1.429,0.466-2.184c-0.171-0.068-1.144-0.461-2.005-0.943c-0.75,0.813-2.673,1.764-2.922,1.884
			c0.262,0.644,0.522,1.267,0.778,1.851c0.532,1.224,1.037,2.309,1.482,3.232h-1.039c-0.383-0.851-0.805-1.82-1.244-2.894
			c-0.268-0.652-0.543-1.355-0.817-2.078c-0.276,0.058-2.532,0.516-3.584,0.278c-0.954-0.216-2.109-0.755-2.536-1.698
			c-0.418-0.923-0.044-2.061,0.958-2.398c1.389-0.467,3.511,1.111,4.288,2.165c0.046,0.062,0.468,0.792,0.727,1.257
			c-0.111-0.296-0.221-0.583-0.331-0.889c-0.222-0.605-0.425-1.214-0.647-1.87c-0.096-0.32-0.193-0.644-0.29-0.97
			c-0.104-0.322-0.172-0.675-0.261-1.016c-0.189-0.794-0.342-1.607-0.478-2.43c-0.53,0.193-2.421,0.851-3.401,0.782
			c-0.976-0.068-2.199-0.427-2.764-1.294c-0.553-0.849-0.356-2.031,0.583-2.515c1.303-0.672,3.639,0.567,4.567,1.491
			c0.058,0.057,0.649,0.795,0.966,1.206c-0.078-0.495-0.158-0.989-0.22-1.493c-0.181-1.454-0.318-2.931-0.462-4.404
			c-0.044-0.451-0.093-0.9-0.14-1.35c-0.188,0.071-2.419,0.901-3.517,0.824c-0.975-0.068-2.199-0.427-2.764-1.294
			c-0.553-0.849-0.356-2.031,0.583-2.515c1.303-0.672,3.639,0.567,4.567,1.49c0.07,0.069,0.919,1.132,1.122,1.413
			c-0.105-0.991-0.218-1.976-0.37-2.944c-0.207-1.335-0.484-2.634-0.845-3.872c-0.087,0.033-2.412,0.91-3.536,0.832
			c-0.976-0.069-2.199-0.427-2.764-1.294c-0.553-0.849-0.356-2.031,0.583-2.515c1.303-0.672,3.639,0.567,4.567,1.49
			c0.072,0.073,0.986,1.216,1.137,1.435c-0.022-0.074-0.036-0.152-0.059-0.225c-0.402-1.317-0.958-2.542-1.534-3.664
			c-0.333-0.652-0.689-1.257-1.047-1.838c-0.416,0.208-2.329,1.137-3.349,1.177c-0.977,0.039-2.233-0.183-2.889-0.983
			c-0.643-0.783-0.577-1.98,0.303-2.564c1.221-0.811,3.679,0.164,4.703,0.98c0.056,0.044,0.572,0.558,0.942,0.938
			c-0.166-0.26-0.332-0.531-0.496-0.776c-0.613-0.924-1.232-1.732-1.785-2.443c-0.318-0.402-0.613-0.759-0.894-1.09
			c-0.515-0.009-2.589-0.072-3.496-0.498c-0.885-0.416-1.897-1.191-2.111-2.204c-0.209-0.992,0.401-2.023,1.451-2.136
			c1.458-0.157,3.19,1.841,3.723,3.037c0.046,0.103,0.58,1.802,0.553,1.802c0,0-0.025,0-0.031,0c0.276,0.313,0.568,0.652,0.88,1.029
			c0.57,0.701,1.208,1.497,1.844,2.411c0.638,0.912,1.305,1.92,1.912,3.046c0.61,1.128,1.194,2.345,1.633,3.676
			c0.005,0.015,0.008,0.031,0.013,0.046c-0.008-0.429,0.011-1.631,0.023-1.723c0.168-1.298,1.256-3.708,2.698-3.975
			c1.039-0.192,1.918,0.622,2.001,1.632c0.084,1.031-0.663,2.064-1.393,2.715c-0.822,0.735-3.105,1.446-3.287,1.502
			c0.407,1.272,0.721,2.611,0.965,3.983c0.14,0.785,0.257,1.579,0.363,2.377c0.005-0.372,0.013-0.704,0.019-0.75
			c0.168-1.298,1.256-3.708,2.698-3.975c1.039-0.192,1.918,0.622,2.001,1.632c0.085,1.031-0.663,2.064-1.392,2.715
			c-0.74,0.661-2.674,1.307-3.188,1.471c0.038,0.306,0.079,0.612,0.115,0.919c0.176,1.471,0.345,2.94,0.555,4.376
			c0.074,0.506,0.165,1.002,0.255,1.498c0.005-0.33,0.012-0.608,0.018-0.65c0.168-1.298,1.256-3.708,2.698-3.975
			c1.039-0.192,1.918,0.622,2.001,1.632c0.085,1.031-0.664,2.064-1.393,2.715c-0.706,0.631-2.486,1.243-3.096,1.441
			c0.107,0.505,0.213,1.012,0.34,1.497c0.094,0.329,0.161,0.652,0.274,0.978c0.105,0.324,0.208,0.646,0.311,0.964
			c0.22,0.605,0.444,1.231,0.673,1.816c0.157,0.408,0.314,0.794,0.47,1.184c-0.079-0.503-0.214-1.49-0.216-1.574
			c-0.02-0.87,0.289-2.283,0.903-3.277c-0.004-0.128,0.004-0.256,0.024-0.384c0.161-1.001,1.101-1.744,2.121-1.472
			c1.417,0.377,2.315,2.864,2.382,4.171c0.004,0.077-0.047,0.919-0.087,1.449c0.072-0.308,0.137-0.608,0.214-0.924
			c0.149-0.627,0.315-1.247,0.492-1.917c0.097-0.32,0.195-0.643,0.293-0.969c0.091-0.326,0.228-0.658,0.342-0.991
			c0.28-0.766,0.601-1.529,0.942-2.29c-0.549-0.132-2.489-0.626-3.268-1.224c-0.776-0.595-1.599-1.569-1.591-2.604
			c0.007-1.013,0.824-1.89,1.874-1.776c1.458,0.158,2.723,2.48,2.987,3.762c0.016,0.08,0.103,1.021,0.14,1.539
			c0.208-0.456,0.414-0.912,0.64-1.367c0.651-1.312,1.351-2.62,2.044-3.927c0.212-0.401,0.419-0.802,0.628-1.203
			c-0.196-0.045-2.515-0.583-3.388-1.253c-0.776-0.595-1.599-1.569-1.591-2.604c0.007-1.013,0.824-1.89,1.874-1.776
			c1.458,0.158,2.723,2.48,2.987,3.762c0.02,0.097,0.142,1.451,0.156,1.797c0.459-0.883,0.908-1.768,1.316-2.659
			c0.564-1.228,1.049-2.463,1.431-3.695c-0.091-0.021-2.514-0.572-3.408-1.257c-0.776-0.595-1.599-1.569-1.591-2.604
			c0.007-1.013,0.824-1.89,1.874-1.776c1.457,0.158,2.722,2.48,2.987,3.762c0.021,0.101,0.152,1.558,0.156,1.824
			c0.023-0.073,0.054-0.147,0.076-0.22c0.391-1.321,0.603-2.649,0.742-3.902c0.082-0.728,0.119-1.428,0.14-2.111
			c-0.462-0.056-2.57-0.337-3.442-0.865c-0.837-0.507-1.761-1.384-1.868-2.414c-0.104-1.008,0.611-1.97,1.667-1.971
			c1.466-0.003,2.979,2.166,3.382,3.411c0.022,0.068,0.169,0.781,0.269,1.302c0.005-0.308,0.016-0.626,0.014-0.921
			c-0.002-1.109-0.072-2.124-0.141-3.022c-0.044-0.511-0.093-0.972-0.144-1.402c-0.424-0.292-2.12-1.489-2.641-2.344
			c-0.509-0.835-0.925-2.04-0.545-3.002c0.372-0.943,1.45-1.466,2.388-0.981c1.302,0.673,1.645,3.295,1.43,4.586
			c-0.019,0.111-0.511,1.823-0.533,1.809c0,0-0.021-0.014-0.026-0.018c0.057,0.413,0.114,0.858,0.166,1.344
			c0.089,0.899,0.182,1.915,0.208,3.028c0.029,1.112,0.029,2.321-0.086,3.595c-0.113,1.277-0.298,2.614-0.666,3.967
			c-0.004,0.015-0.01,0.031-0.015,0.046c0.231-0.362,0.91-1.354,0.97-1.424c0.856-0.99,3.094-2.4,4.443-1.827
			c0.972,0.413,1.257,1.577,0.769,2.465C432.668,350.728,431.475,351.177,430.507,351.318z"/>
		<path style="fill:#263238;" d="M405.366,344.43c-0.023,0.014-0.468-1.71-0.484-1.822c-0.18-1.297,0.233-3.908,1.553-4.546
			c0.951-0.46,2.014,0.093,2.361,1.046c0.354,0.972-0.095,2.166-0.626,2.987C407.546,343.058,405.368,344.429,405.366,344.43z"/>
	</g>
	<g>
		<path style="fill:#263238;" d="M460.161,397.449c-1.76,0.769-6.065,0.672-6.068,0.672c-0.045-0.001,0.925-2.818,1.007-2.989
			c0.944-1.976,3.931-5.238,6.361-4.91c1.751,0.237,2.725,1.989,2.329,3.637C463.387,395.544,461.66,396.794,460.161,397.449z"/>
		<path style="fill:#263238;" d="M458.675,409.918c-1.826,0.266-5.667-0.848-5.973-0.938c-0.607,2.151-1.403,4.308-2.33,6.447
			c-0.528,1.224-1.099,2.439-1.686,3.651c0.35-0.513,0.668-0.97,0.719-1.029c1.433-1.656,5.175-4.014,7.432-3.055
			c1.627,0.69,2.103,2.637,1.286,4.123c-0.833,1.517-2.83,2.268-4.449,2.503c-1.643,0.24-4.937-0.645-5.806-0.89
			c-0.23,0.463-0.455,0.927-0.687,1.388c-1.112,2.215-2.232,4.421-3.264,6.618c-0.364,0.774-0.694,1.55-1.027,2.325
			c0.312-0.456,0.578-0.837,0.625-0.891c1.433-1.656,5.175-4.014,7.432-3.055c1.626,0.691,2.103,2.638,1.286,4.123
			c-0.834,1.517-2.83,2.268-4.449,2.503c-1.567,0.229-4.615-0.56-5.649-0.847c-0.317,0.804-0.636,1.608-0.907,2.402
			c-0.173,0.546-0.378,1.059-0.52,1.617c-0.154,0.549-0.305,1.093-0.455,1.632c-0.251,1.048-0.517,2.127-0.737,3.156
			c-0.158,0.714-0.296,1.397-0.436,2.086c0.353-0.775,1.077-2.277,1.152-2.396c1.165-1.854,4.507-4.751,6.884-4.146
			c1.712,0.436,2.478,2.289,1.895,3.881c-0.594,1.626-2.454,2.67-4.018,3.148c-1.722,0.526-5.535,0.045-6.011-0.018
			c-0.229,1.139-0.44,2.25-0.623,3.301c-0.409,2.319-0.717,4.398-0.952,6.158h-1.608c0.28-1.82,0.647-3.989,1.131-6.424
			c0.227-1.158,0.493-2.39,0.779-3.654c-0.287-0.114-1.913-0.772-3.354-1.577c-1.255,1.359-4.471,2.95-4.888,3.152
			c0.438,1.077,0.874,2.119,1.301,3.096c0.889,2.047,1.734,3.862,2.48,5.406h-1.738c-0.641-1.423-1.346-3.044-2.081-4.841
			c-0.449-1.091-0.907-2.266-1.366-3.477c-0.461,0.096-4.236,0.863-5.995,0.466c-1.595-0.361-3.528-1.263-4.242-2.84
			c-0.699-1.544-0.073-3.448,1.602-4.011c2.324-0.781,5.873,1.859,7.173,3.622c0.077,0.104,0.783,1.325,1.216,2.102
			c-0.185-0.496-0.37-0.975-0.554-1.488c-0.372-1.011-0.712-2.031-1.082-3.128c-0.16-0.536-0.322-1.077-0.486-1.623
			c-0.173-0.539-0.288-1.129-0.437-1.699c-0.316-1.328-0.572-2.688-0.799-4.064c-0.886,0.322-4.05,1.423-5.689,1.308
			c-1.632-0.115-3.678-0.714-4.623-2.165c-0.925-1.42-0.595-3.398,0.975-4.208c2.18-1.124,6.087,0.948,7.64,2.493
			c0.097,0.096,1.086,1.33,1.616,2.018c-0.13-0.828-0.264-1.655-0.368-2.497c-0.302-2.432-0.531-4.902-0.772-7.366
			c-0.073-0.755-0.155-1.506-0.234-2.258c-0.314,0.118-4.046,1.508-5.883,1.379c-1.632-0.114-3.678-0.714-4.623-2.165
			c-0.925-1.42-0.595-3.398,0.975-4.207c2.18-1.124,6.087,0.948,7.639,2.493c0.117,0.116,1.538,1.894,1.877,2.363
			c-0.175-1.657-0.365-3.306-0.618-4.924c-0.346-2.233-0.809-4.405-1.414-6.477c-0.146,0.055-4.035,1.523-5.915,1.391
			c-1.632-0.115-3.679-0.714-4.623-2.165c-0.925-1.42-0.595-3.397,0.975-4.207c2.18-1.124,6.087,0.948,7.639,2.493
			c0.121,0.121,1.649,2.034,1.901,2.401c-0.036-0.123-0.06-0.255-0.098-0.377c-0.673-2.203-1.602-4.252-2.566-6.129
			c-0.558-1.091-1.152-2.103-1.752-3.075c-0.696,0.348-3.896,1.901-5.601,1.97c-1.634,0.065-3.735-0.306-4.833-1.644
			c-1.076-1.31-0.965-3.312,0.507-4.289c2.043-1.357,6.154,0.274,7.867,1.639c0.093,0.074,0.956,0.934,1.576,1.569
			c-0.277-0.435-0.556-0.888-0.83-1.298c-1.026-1.545-2.061-2.897-2.987-4.086c-0.532-0.672-1.026-1.269-1.495-1.823
			c-0.861-0.015-4.331-0.121-5.848-0.833c-1.48-0.695-3.174-1.992-3.532-3.686c-0.35-1.659,0.67-3.384,2.427-3.573
			c2.438-0.263,5.336,3.079,6.227,5.079c0.077,0.173,0.97,3.015,0.925,3.015c0,0-0.042,0-0.052-0.001
			c0.462,0.524,0.95,1.091,1.472,1.721c0.954,1.172,2.021,2.504,3.084,4.033c1.067,1.525,2.183,3.212,3.198,5.094
			c1.02,1.886,1.997,3.922,2.732,6.15c0.009,0.025,0.014,0.052,0.022,0.078c-0.013-0.718,0.019-2.728,0.039-2.882
			c0.282-2.172,2.102-6.203,4.514-6.649c1.737-0.321,3.209,1.04,3.347,2.73c0.141,1.726-1.11,3.452-2.33,4.542
			c-1.376,1.229-5.195,2.419-5.499,2.513c0.681,2.128,1.206,4.367,1.613,6.662c0.234,1.312,0.429,2.641,0.608,3.976
			c0.009-0.622,0.022-1.177,0.032-1.255c0.282-2.172,2.102-6.203,4.514-6.648c1.737-0.321,3.209,1.04,3.347,2.729
			c0.142,1.725-1.11,3.452-2.329,4.542c-1.238,1.105-4.473,2.186-5.333,2.46c0.063,0.513,0.132,1.024,0.193,1.537
			c0.294,2.461,0.577,4.918,0.928,7.32c0.123,0.847,0.276,1.676,0.426,2.505c0.009-0.552,0.021-1.017,0.03-1.087
			c0.282-2.172,2.102-6.203,4.513-6.649c1.738-0.321,3.209,1.04,3.348,2.73c0.141,1.725-1.11,3.452-2.33,4.542
			c-1.181,1.055-4.158,2.079-5.179,2.41c0.179,0.845,0.357,1.692,0.568,2.504c0.157,0.551,0.27,1.091,0.458,1.636
			c0.175,0.542,0.349,1.08,0.52,1.612c0.369,1.013,0.742,2.06,1.126,3.038c0.262,0.683,0.525,1.329,0.787,1.98
			c-0.132-0.841-0.358-2.493-0.361-2.633c-0.033-1.455,0.483-3.82,1.511-5.482c-0.006-0.215,0.006-0.429,0.04-0.642
			c0.269-1.674,1.841-2.917,3.549-2.462c2.37,0.631,3.873,4.791,3.985,6.978c0.007,0.129-0.078,1.537-0.146,2.424
			c0.12-0.516,0.229-1.017,0.359-1.546c0.249-1.048,0.528-2.087,0.823-3.206c0.162-0.535,0.326-1.075,0.491-1.622
			c0.152-0.545,0.382-1.101,0.573-1.658c0.469-1.281,1.006-2.558,1.576-3.831c-0.918-0.22-4.164-1.047-5.467-2.048
			c-1.298-0.995-2.674-2.625-2.662-4.356c0.012-1.695,1.378-3.162,3.134-2.972c2.438,0.265,4.554,4.149,4.997,6.294
			c0.027,0.134,0.172,1.708,0.235,2.575c0.349-0.763,0.693-1.526,1.07-2.286c1.089-2.195,2.26-4.382,3.42-6.57
			c0.355-0.67,0.701-1.341,1.05-2.012c-0.328-0.075-4.207-0.975-5.667-2.095c-1.297-0.996-2.674-2.625-2.662-4.356
			c0.012-1.695,1.378-3.162,3.134-2.971c2.438,0.265,4.554,4.148,4.997,6.293c0.033,0.162,0.238,2.428,0.262,3.006
			c0.768-1.478,1.519-2.958,2.201-4.448c0.943-2.054,1.755-4.121,2.394-6.182c-0.153-0.035-4.206-0.956-5.702-2.103
			c-1.298-0.996-2.674-2.625-2.661-4.356c0.012-1.695,1.378-3.162,3.134-2.971c2.438,0.265,4.554,4.149,4.996,6.293
			c0.035,0.169,0.254,2.607,0.262,3.051c0.038-0.122,0.091-0.245,0.127-0.368c0.653-2.209,1.009-4.431,1.241-6.528
			c0.137-1.218,0.199-2.389,0.235-3.531c-0.773-0.094-4.299-0.564-5.758-1.448c-1.399-0.847-2.946-2.315-3.124-4.037
			c-0.174-1.686,1.023-3.295,2.789-3.298c2.453-0.005,4.982,3.624,5.658,5.707c0.037,0.113,0.283,1.306,0.449,2.178
			c0.008-0.515,0.026-1.047,0.024-1.541c-0.003-1.854-0.121-3.553-0.237-5.056c-0.073-0.854-0.156-1.625-0.241-2.345
			c-0.71-0.488-3.546-2.49-4.418-3.921c-0.851-1.397-1.548-3.412-0.912-5.022c0.622-1.577,2.426-2.453,3.995-1.642
			c2.179,1.126,2.752,5.512,2.392,7.672c-0.032,0.186-0.854,3.05-0.892,3.025c0,0-0.035-0.024-0.043-0.03
			c0.096,0.691,0.19,1.434,0.277,2.248c0.149,1.504,0.304,3.204,0.347,5.065c0.048,1.86,0.049,3.883-0.143,6.013
			c-0.19,2.135-0.498,4.372-1.114,6.636c-0.007,0.025-0.018,0.051-0.025,0.077c0.386-0.606,1.522-2.265,1.623-2.382
			c1.433-1.656,5.175-4.014,7.432-3.056c1.626,0.691,2.103,2.638,1.286,4.124C462.29,408.932,460.294,409.682,458.675,409.918z"/>
		<path style="fill:#263238;" d="M416.621,398.396c-0.038,0.024-0.783-2.861-0.809-3.048c-0.302-2.169,0.39-6.538,2.598-7.604
			c1.591-0.769,3.369,0.156,3.949,1.749c0.592,1.627-0.158,3.623-1.047,4.996C420.267,396.101,416.623,398.394,416.621,398.396z"/>
	</g>
	<g>
		<path style="fill:#263238;" d="M486.599,423.686c-1.052,0.46-3.626,0.402-3.628,0.402c-0.027-0.001,0.553-1.685,0.602-1.787
			c0.564-1.181,2.35-3.131,3.803-2.935c1.047,0.141,1.629,1.189,1.392,2.174C488.528,422.547,487.495,423.295,486.599,423.686z"/>
		<path style="fill:#263238;" d="M485.711,431.14c-1.091,0.159-3.388-0.507-3.571-0.561c-0.363,1.286-0.839,2.575-1.393,3.854
			c-0.316,0.731-0.657,1.458-1.008,2.183c0.209-0.307,0.399-0.58,0.43-0.615c0.857-0.99,3.094-2.4,4.443-1.826
			c0.973,0.413,1.257,1.577,0.769,2.465c-0.498,0.907-1.692,1.356-2.66,1.496c-0.982,0.143-2.951-0.385-3.471-0.532
			c-0.138,0.277-0.272,0.554-0.411,0.83c-0.665,1.324-1.334,2.643-1.951,3.956c-0.218,0.463-0.415,0.926-0.614,1.39
			c0.186-0.272,0.346-0.5,0.374-0.533c0.857-0.99,3.094-2.4,4.443-1.826c0.972,0.413,1.257,1.577,0.769,2.465
			c-0.499,0.907-1.692,1.356-2.66,1.496c-0.937,0.137-2.759-0.335-3.377-0.506c-0.19,0.481-0.38,0.962-0.542,1.436
			c-0.103,0.326-0.226,0.633-0.311,0.967c-0.092,0.328-0.182,0.654-0.272,0.975c-0.15,0.626-0.309,1.272-0.44,1.887
			c-0.095,0.427-0.177,0.836-0.261,1.247c0.211-0.463,0.644-1.361,0.689-1.432c0.696-1.108,2.694-2.84,4.115-2.478
			c1.023,0.261,1.481,1.368,1.133,2.32c-0.355,0.972-1.467,1.596-2.402,1.882c-1.03,0.315-3.309,0.027-3.594-0.011
			c-0.137,0.681-0.263,1.345-0.372,1.973c-0.244,1.386-0.429,2.629-0.569,3.681h-0.961c0.168-1.088,0.387-2.385,0.676-3.841
			c0.136-0.692,0.295-1.429,0.465-2.184c-0.171-0.068-1.143-0.461-2.005-0.943c-0.75,0.813-2.673,1.764-2.922,1.884
			c0.262,0.644,0.522,1.267,0.778,1.851c0.532,1.224,1.037,2.309,1.482,3.232h-1.039c-0.383-0.851-0.805-1.82-1.244-2.894
			c-0.268-0.652-0.542-1.355-0.817-2.078c-0.276,0.058-2.532,0.516-3.584,0.278c-0.954-0.216-2.109-0.755-2.536-1.698
			c-0.418-0.923-0.044-2.061,0.958-2.398c1.389-0.467,3.511,1.111,4.288,2.165c0.046,0.062,0.468,0.792,0.727,1.257
			c-0.111-0.296-0.221-0.583-0.331-0.889c-0.222-0.605-0.426-1.214-0.647-1.87c-0.096-0.32-0.193-0.644-0.29-0.97
			c-0.104-0.322-0.173-0.675-0.261-1.016c-0.189-0.794-0.342-1.607-0.478-2.43c-0.53,0.193-2.421,0.851-3.401,0.782
			c-0.975-0.068-2.199-0.427-2.764-1.294c-0.553-0.849-0.356-2.031,0.583-2.515c1.303-0.672,3.639,0.567,4.567,1.491
			c0.058,0.057,0.649,0.795,0.966,1.206c-0.078-0.495-0.158-0.989-0.22-1.493c-0.181-1.454-0.318-2.931-0.462-4.403
			c-0.044-0.451-0.093-0.9-0.14-1.35c-0.188,0.071-2.419,0.901-3.517,0.824c-0.975-0.068-2.199-0.427-2.764-1.294
			c-0.553-0.849-0.356-2.031,0.583-2.515c1.303-0.672,3.639,0.567,4.567,1.49c0.07,0.07,0.919,1.132,1.122,1.413
			c-0.105-0.991-0.218-1.976-0.37-2.944c-0.207-1.335-0.484-2.634-0.845-3.872c-0.087,0.033-2.412,0.91-3.536,0.832
			c-0.975-0.069-2.199-0.427-2.764-1.294c-0.553-0.849-0.356-2.031,0.583-2.515c1.303-0.672,3.639,0.567,4.567,1.49
			c0.073,0.073,0.986,1.216,1.137,1.435c-0.022-0.074-0.036-0.152-0.059-0.225c-0.402-1.317-0.958-2.542-1.534-3.664
			c-0.333-0.652-0.689-1.257-1.047-1.838c-0.416,0.208-2.329,1.137-3.349,1.177c-0.977,0.039-2.233-0.183-2.889-0.983
			c-0.643-0.783-0.577-1.98,0.303-2.564c1.222-0.811,3.679,0.164,4.703,0.98c0.056,0.044,0.572,0.558,0.942,0.938
			c-0.166-0.26-0.332-0.531-0.496-0.776c-0.613-0.924-1.232-1.732-1.786-2.443c-0.318-0.402-0.613-0.759-0.894-1.09
			c-0.515-0.009-2.589-0.072-3.496-0.498c-0.885-0.416-1.897-1.191-2.111-2.204c-0.209-0.992,0.401-2.023,1.451-2.136
			c1.458-0.157,3.19,1.841,3.723,3.037c0.046,0.103,0.58,1.802,0.553,1.802c0,0-0.025,0-0.031,0c0.276,0.313,0.568,0.652,0.88,1.029
			c0.57,0.701,1.208,1.497,1.844,2.411c0.638,0.912,1.305,1.92,1.912,3.046c0.61,1.128,1.194,2.345,1.633,3.676
			c0.005,0.015,0.008,0.031,0.013,0.046c-0.008-0.429,0.011-1.631,0.023-1.723c0.168-1.298,1.256-3.708,2.698-3.975
			c1.039-0.192,1.918,0.622,2.001,1.632c0.084,1.031-0.664,2.064-1.393,2.715c-0.822,0.735-3.105,1.446-3.287,1.502
			c0.407,1.272,0.721,2.611,0.965,3.983c0.14,0.785,0.257,1.579,0.363,2.377c0.005-0.372,0.013-0.704,0.019-0.75
			c0.168-1.298,1.256-3.708,2.698-3.975c1.039-0.192,1.918,0.622,2.001,1.632c0.085,1.031-0.663,2.064-1.392,2.715
			c-0.74,0.661-2.674,1.307-3.188,1.471c0.038,0.306,0.079,0.612,0.116,0.919c0.176,1.471,0.345,2.94,0.555,4.376
			c0.074,0.506,0.165,1.002,0.254,1.498c0.005-0.33,0.012-0.608,0.018-0.65c0.168-1.298,1.256-3.708,2.698-3.975
			c1.039-0.192,1.919,0.622,2.001,1.632c0.085,1.031-0.664,2.064-1.393,2.715c-0.706,0.631-2.486,1.243-3.096,1.441
			c0.107,0.505,0.213,1.012,0.34,1.497c0.094,0.329,0.161,0.652,0.274,0.978c0.105,0.324,0.208,0.646,0.311,0.964
			c0.22,0.605,0.444,1.231,0.673,1.816c0.157,0.408,0.314,0.794,0.47,1.184c-0.079-0.503-0.214-1.49-0.216-1.574
			c-0.02-0.87,0.289-2.283,0.904-3.277c-0.004-0.128,0.004-0.256,0.024-0.384c0.161-1.001,1.101-1.744,2.122-1.472
			c1.417,0.377,2.315,2.864,2.382,4.171c0.004,0.077-0.047,0.919-0.087,1.449c0.072-0.308,0.137-0.608,0.214-0.924
			c0.149-0.627,0.315-1.247,0.492-1.917c0.097-0.32,0.195-0.643,0.293-0.969c0.091-0.326,0.229-0.658,0.342-0.991
			c0.28-0.766,0.601-1.529,0.942-2.29c-0.549-0.132-2.489-0.626-3.268-1.224c-0.776-0.595-1.599-1.569-1.591-2.604
			c0.007-1.013,0.824-1.891,1.874-1.776c1.457,0.158,2.723,2.48,2.987,3.762c0.016,0.08,0.103,1.021,0.14,1.539
			c0.208-0.456,0.414-0.912,0.64-1.367c0.651-1.312,1.351-2.62,2.044-3.927c0.212-0.401,0.419-0.802,0.628-1.203
			c-0.196-0.045-2.515-0.583-3.388-1.253c-0.776-0.595-1.598-1.569-1.591-2.604c0.007-1.013,0.824-1.89,1.874-1.776
			c1.458,0.158,2.722,2.48,2.987,3.762c0.02,0.097,0.142,1.451,0.156,1.797c0.459-0.883,0.908-1.768,1.316-2.659
			c0.564-1.228,1.049-2.463,1.431-3.695c-0.091-0.021-2.514-0.572-3.408-1.257c-0.776-0.595-1.599-1.569-1.591-2.604
			c0.007-1.013,0.824-1.89,1.874-1.776c1.457,0.158,2.722,2.48,2.987,3.762c0.021,0.101,0.152,1.558,0.156,1.824
			c0.023-0.073,0.054-0.147,0.076-0.22c0.391-1.321,0.604-2.649,0.742-3.902c0.082-0.728,0.119-1.428,0.14-2.111
			c-0.462-0.056-2.57-0.337-3.442-0.865c-0.837-0.507-1.761-1.384-1.868-2.414c-0.104-1.008,0.611-1.97,1.667-1.971
			c1.466-0.003,2.978,2.166,3.382,3.411c0.022,0.068,0.169,0.781,0.269,1.302c0.005-0.308,0.016-0.626,0.014-0.921
			c-0.002-1.109-0.072-2.124-0.142-3.022c-0.044-0.511-0.093-0.972-0.144-1.402c-0.424-0.292-2.12-1.489-2.641-2.344
			c-0.509-0.835-0.925-2.04-0.545-3.003c0.372-0.943,1.45-1.466,2.388-0.981c1.302,0.673,1.645,3.295,1.43,4.586
			c-0.019,0.111-0.511,1.823-0.533,1.809c0,0-0.021-0.014-0.026-0.018c0.057,0.413,0.114,0.858,0.166,1.344
			c0.089,0.899,0.182,1.915,0.208,3.028c0.029,1.112,0.029,2.321-0.086,3.595c-0.114,1.277-0.298,2.614-0.666,3.967
			c-0.004,0.015-0.011,0.031-0.015,0.046c0.231-0.362,0.91-1.354,0.97-1.424c0.857-0.99,3.094-2.4,4.443-1.827
			c0.972,0.413,1.257,1.577,0.769,2.465C487.872,430.551,486.679,430.999,485.711,431.14z"/>
		<path style="fill:#263238;" d="M460.57,424.253c-0.023,0.014-0.468-1.71-0.484-1.822c-0.18-1.297,0.233-3.908,1.553-4.546
			c0.951-0.459,2.014,0.093,2.361,1.046c0.354,0.972-0.095,2.166-0.626,2.987C462.75,422.88,460.572,424.251,460.57,424.253z"/>
	</g>
</g>
<g id="Clouds">
	<path style="fill:none;stroke:#263238;stroke-linecap:round;stroke-linejoin:round;stroke-miterlimit:10;" d="M448.009,89.38
		c-1.479-7.461-9.147-10.316-14.842-12.815c-7.129-3.127-11.126-5.949-14.776-10.966c-1.719-2.362-3.361-5.212-5.216-8.809
		c-5.911-11.46-15.941-19.873-27.081-22.713c-9.006-2.296-19.546-0.426-25.366,7.975c-4.866,7.025-6.996,18.587-14.629,19.82
		c-3.692,0.597-7.214-1.735-10.456-3.897c-4.586-3.058-9.356-5.979-14.548-7.058c-5.192-1.079-10.936-0.073-14.914,3.997
		c-5.871,6.007-7.724,18.022-15.37,19.735c-6.556,1.469-12.806-6.284-19.315-4.549c-5.385,1.435-7.972,8.404-11.556,13.343
		c-1.774,2.445-3.926,4.435-6.302,5.937H448.009z"/>
	<path style="fill:none;stroke:#263238;stroke-linecap:round;stroke-linejoin:round;stroke-miterlimit:10;" d="M441.503,122.709
		c-0.585-2.949-3.616-4.078-5.867-5.066c-2.818-1.236-4.398-2.351-5.841-4.335c-0.679-0.934-1.328-2.06-2.062-3.482
		c-2.336-4.53-6.301-7.856-10.705-8.978C413.467,99.94,409.3,100.679,407,104c-1.924,2.777-2.766,7.348-5.783,7.835
		c-1.46,0.236-2.852-0.686-4.133-1.54c-1.813-1.209-3.698-2.363-5.751-2.79c-2.052-0.426-4.323-0.029-5.895,1.58
		c-2.321,2.375-3.053,7.124-6.076,7.801c-2.592,0.581-5.062-2.484-7.635-1.798c-2.129,0.567-3.151,3.322-4.568,5.274
		c-0.701,0.967-1.552,1.753-2.491,2.347H441.503z"/>
	<path style="fill:none;stroke:#263238;stroke-linecap:round;stroke-linejoin:round;stroke-miterlimit:10;" d="M181.77,117.883
		c-0.585-2.949-3.616-4.078-5.867-5.066c-2.818-1.236-4.398-2.351-5.841-4.335c-0.679-0.934-1.328-2.06-2.062-3.482
		c-2.336-4.53-6.301-7.856-10.705-8.978c-3.56-0.908-7.727-0.168-10.027,3.153c-1.923,2.777-2.766,7.348-5.783,7.835
		c-1.46,0.236-2.852-0.686-4.133-1.54c-1.813-1.209-3.698-2.363-5.751-2.79c-2.052-0.426-4.323-0.029-5.895,1.58
		c-2.321,2.375-3.054,7.124-6.076,7.801c-2.592,0.581-5.062-2.484-7.635-1.798c-2.129,0.567-3.151,3.322-4.568,5.274
		c-0.701,0.967-1.552,1.753-2.491,2.347H181.77z"/>
	<path style="fill:none;stroke:#263238;stroke-linecap:round;stroke-linejoin:round;stroke-miterlimit:10;" d="M160.559,256.136
		c-0.99-4.994-6.122-6.905-9.934-8.577c-4.771-2.093-7.447-3.981-9.89-7.34c-1.15-1.581-2.249-3.488-3.491-5.896
		c-3.956-7.67-10.669-13.301-18.125-15.202c-6.028-1.537-13.082-0.285-16.977,5.338c-3.257,4.702-4.682,12.441-9.792,13.266
		c-2.471,0.399-4.828-1.161-6.998-2.608c-3.07-2.046-6.262-4.001-9.737-4.724c-3.475-0.722-7.32-0.049-9.982,2.675
		c-3.93,4.021-5.17,12.062-10.287,13.209c-4.388,0.983-8.571-4.206-12.928-3.045c-3.604,0.96-5.336,5.625-7.735,8.93
		c-1.188,1.637-2.628,2.969-4.218,3.974H160.559z"/>
	<path style="fill:none;stroke:#263238;stroke-linecap:round;stroke-linejoin:round;stroke-miterlimit:10;" d="M169.645,286.883
		c-0.391-1.974-2.42-2.729-3.927-3.391c-1.886-0.827-2.944-1.574-3.91-2.901c-0.455-0.625-0.889-1.379-1.38-2.331
		c-1.564-3.032-4.218-5.258-7.165-6.009c-2.383-0.608-5.171-0.113-6.711,2.11c-1.288,1.859-1.851,4.918-3.871,5.244
		c-0.977,0.158-1.909-0.459-2.767-1.031c-1.214-0.809-2.475-1.582-3.849-1.867c-1.374-0.285-2.893-0.019-3.946,1.057
		c-1.553,1.589-2.044,4.768-4.067,5.221c-1.735,0.389-3.388-1.663-5.11-1.204c-1.425,0.38-2.109,2.224-3.058,3.53
		c-0.469,0.647-1.039,1.173-1.667,1.571H169.645z"/>
</g>
<g id="Rocks">
	<g>
		<g>
			<path style="fill:#FFFFFF;stroke:#263238;stroke-linejoin:round;stroke-miterlimit:10;" d="M356.544,341.906
				c0,0-41.593-47.659-47.016-55.887c-5.423-8.228-29.274,0-39.919,0.887c-10.645,0.887-20.403,15.968-24.839,19.516
				s-7.984,22.177-7.984,22.177s-6.21,6.21-8.871,7.984s-3.548,22.177-2.661,25.726c0.887,3.548,54.113,27.5,60.323,29.274
				c6.21,1.774,48.79-2.661,55.887-2.661c7.097,0,29.274-13.306,27.5-25.726C367.19,350.777,356.544,341.906,356.544,341.906z"/>
			<path style="fill:#263238;stroke:#263238;stroke-linejoin:round;stroke-miterlimit:10;" d="M367.341,370.857
				c0.12-3.594-0.384-9.58-1.23-16.553c-3.75-7.547-9.566-12.399-9.566-12.399s-41.593-47.659-47.016-55.887
				c-1.169-1.774-3.197-2.779-5.762-3.262c-2.18,1.411-4.505,3.351-4.549,5.244c-0.083,3.577-1.762,27.927-1.762,31.285
				c0,3.359,1.679,20.991,1.679,20.991s5.038,14.274,8.396,15.113c3.359,0.84,38.623,21.83,44.501,21.83
				c2.848,0,6.055,1.318,8.814,1.562C363.541,376.365,365.858,373.665,367.341,370.857z"/>
			<path style="fill:#263238;stroke:#263238;stroke-linejoin:round;stroke-miterlimit:10;" d="M491.833,487.667L480,464l-15-24
				l-12-14c0,0-28-16-32-16s-35-8-35-8l-35,29l-112.439-19.901c0,0-25.561,9.901-28.561,11.901s-47,14-52,15s-70,49-70,49
				l54.13,0.667H491.833z"/>
			<polyline style="fill:#263238;stroke:#263238;stroke-linejoin:round;stroke-miterlimit:10;" points="437.87,442.948 
				431.897,451.324 413.892,454.641 430.476,467.908 439.005,472.646 420,471 384.042,443.269 409.628,438.531 			"/>
			<path style="fill:#FFFFFF;stroke:#263238;stroke-linejoin:round;stroke-miterlimit:10;" d="M170.895,361.096
				c0,0-12.173-13.867-16.609-13.867s-17.742,3.548-21.29,5.323c-3.548,1.774-12.419,23.952-15.081,25.726
				s-26.613,23.064-31.048,27.5c-4.436,4.435-16.855,11.532-16.855,16.855s7.984,10.645,7.984,10.645h84.274
				c0,0,25.726-24.839,27.5-33.71S170.895,361.096,170.895,361.096z"/>
			<path style="fill:#FFFFFF;stroke:#263238;stroke-linejoin:round;stroke-miterlimit:10;" d="M287.251,371.823
				c0,0-62.836-22.445-68.183-24.85c-5.346-2.405-41.717,6.466-41.717,6.466s-30.161,14.194-34.597,20.403
				c-4.435,6.21-3.548,10.645-0.887,14.194c2.661,3.548,107.339,36.371,117.984,37.258c10.645,0.887,39.032-5.323,46.129-19.516
				C313.077,391.583,287.251,371.823,287.251,371.823z"/>
			<path style="fill:#263238;stroke:#263238;stroke-linejoin:round;stroke-miterlimit:10;" d="M231.589,389.611l-4.414,3.09
				c0,0-19.422-7.945-18.098-4.414c1.324,3.531,29.574,26.043,30.016,30.016c0.441,3.973,0.77,7.385,6.565,9.651
				c5.795,2.266,12.416,4.915,16.83,2.266c4.414-2.648,9.27-3.09,9.27-8.387c0-5.297-2.207-16.773-2.207-16.773
				S234.679,388.287,231.589,389.611z"/>
			<polygon style="fill:#263238;stroke:#263238;stroke-linejoin:round;stroke-miterlimit:10;" points="232.892,398.256 
				260.374,418.63 263.217,421 272.693,414.84 			"/>
			<path style="fill:#FFFFFF;stroke:#263238;stroke-linejoin:round;stroke-miterlimit:10;" d="M379.609,396.018
				c-3.032,8.337-5.323,17.742-13.307,23.065c-7.984,5.323-30.161,15.968-37.258,15.968c-7.097,0-57.661-14.194-63.871-18.629
				c-6.21-4.435-27.5-12.419-33.71-19.516s0.887-23.065,0.887-23.065s20.403-15.081,26.513-14.881
				c6.109,0.199,52.439-4.635,59.536-2.861s59.435,22.178,59.435,22.178S383.157,386.26,379.609,396.018z"/>
			<path style="fill:#FFFFFF;stroke:#263238;stroke-linejoin:round;stroke-miterlimit:10;" d="M238.561,411.099
				c0,0-23.064-22.177-28.387-26.613c-5.323-4.435-31.935-2.661-37.258-0.887c-5.322,1.774-20.403,12.419-23.952,16.855
				c-3.548,4.435-13.306,26.613-13.306,26.613l9.758,14.194c0,0,36.371,3.548,49.678,3.548c13.306,0,37.258-0.887,37.258-0.887
				s9.758-7.984,13.307-15.968C249.206,419.97,238.561,411.099,238.561,411.099z"/>
			<path style="fill:#263238;stroke:#263238;stroke-linejoin:round;stroke-miterlimit:10;" d="M209.927,403.202
				c9.035,12.571,18.07,16.499,15.713,20.035c-2.357,3.536-9.428,1.571-13.749,1.178c-4.321-0.393-8.249,7.464-10.606,10.999
				c-1.243,1.864-3.679,5.798-5.482,9.393c13.428-0.03,36.548-0.886,36.548-0.886s9.758-7.984,13.306-15.968
				c3.548-7.984-7.097-16.855-7.097-16.855s-23.064-22.177-28.387-26.613C210.173,384.486,200.892,390.631,209.927,403.202z"/>
			<path style="fill:#FFFFFF;stroke:#263238;stroke-linejoin:round;stroke-miterlimit:10;" d="M123,433l22-19l18-3c0,0,37-4,41,1
				s15,20,15,20l-8,19c0,0-1,11-8,15s-39,16-39,16h-25c0,0-17-11-17-17S123,433,123,433z"/>
			<path style="fill:#263238;stroke:#263238;stroke-linejoin:round;stroke-miterlimit:10;" d="M219,432c0,0-11-15-15-20
				c-0.304-0.38-0.817-0.702-1.471-0.983l-0.096,0.574l-0.392,1.958c0,0,0.783,18.409,2.35,22.326
				c1.567,3.917,5.092,10.184,2.35,12.925c-2.742,2.742-8.225,8.617-12.142,12.142c-3.917,3.525-14.101,6.659-18.017,7.05
				c-3.917,0.392-7.442-1.959-14.492-2.35c-7.05-0.392-9.4-0.392-12.534,0.783c-3.133,1.175-8.617,4.7-8.617,4.7
				s-5.483-3.133-6.659-7.442c-1.175-4.309-4.309-8.225-5.484-8.225c-1.175,0-2.35,9.792-2.742,14.492
				c-0.041,0.496-0.137,0.992-0.265,1.488C130.8,476.692,139,482,139,482h25c0,0,32-12,39-16s8-15,8-15L219,432z"/>
			<path style="fill:#FFFFFF;stroke:#263238;stroke-linejoin:round;stroke-miterlimit:10;" d="M127.276,487.161L128,483
				c0,0,0-8,0-11s8-23,8-29s-13-21-16-23s-15-9-18-9s-17,2-25,6s-22,17-29,23S7.667,488.333,7.667,488.333"/>
			<path style="fill:#FFFFFF;stroke:#263238;stroke-linejoin:round;stroke-miterlimit:10;" d="M381,440
				c-2.094-2.094-6.467-5.765-10.844-9.327c-2.235-2.049-5.109-4.29-7.975-6.389C359.694,422.317,358,421,358,421l-0.461-0.015
				c-2.194-1.519-4.13-2.81-5.43-3.676c-5.323-3.548-23.952-15.968-31.048-15.081c-7.097,0.887-39.919,1.774-42.581,6.21
				c-2.661,4.435-56.774,35.484-56.774,35.484l0.766,0.004L216,447l-13,19c0,0,13,9,16,9s19.686-1.354,26.686-2.354
				c6.291-0.899,49.117,8.621,57.723,10.558c1.014,0.228,2.034,0.381,3.07,0.461l53.432,4.11c4.299,0.331,8.597-0.648,12.328-2.808
				L386,477c0,0,7-4,11-7s4-10,4-13S386,445,381,440z"/>
			<path style="fill:#263238;stroke:#263238;stroke-linejoin:round;stroke-miterlimit:10;" d="M381,440
				c-0.754-0.754-1.812-1.718-3.051-2.803l-3.858,2.755c0,0,4.264,9.003,7.107,10.424c2.843,1.421,7.107,7.107,7.107,7.107
				s1.895,6.633-1.421,10.424c-3.317,3.791-22.27,9.95-28.429,10.898c-6.16,0.948-15.162,0.948-15.162,0.948
				s8.529-1.895,16.584-3.317c8.055-1.422,14.688-3.317,16.584-5.212c1.895-1.895,3.791-5.212,2.369-4.738
				c-1.421,0.474-5.212,1.895-11.372,3.317s-14.689,2.843-20.374,2.843c-5.686,0-16.584,0.948-19.901,0.948
				c-3.317,0-44.539-6.16-46.908-6.633c-2.369-0.474-4.264-1.422-4.264-1.422s-2.843,2.843,4.264,4.264
				c7.107,1.421,6.633,3.317,21.322,5.212c14.688,1.895,29.377,4.738,27.008,5.212c-2.369,0.474-9.003,0.948-18.953-0.948
				c-9.95-1.895-16.11-1.421-21.796-3.79c-5.686-2.369-8.529-3.317-16.584-5.686s-11.846-3.317-20.848-3.791
				c-9.003-0.474-12.319-0.474-16.11-0.474c-3.791,0-7.581,5.212-12.793,6.16c-2.036,0.37-4.867,0.813-7.561,1.214
				c2.189,1.208,4.103,2.087,5.04,2.087c3,0,19.686-1.354,26.686-2.354c6.292-0.899,49.117,8.621,57.723,10.558
				c1.014,0.228,2.034,0.381,3.07,0.461l53.432,4.11c4.299,0.331,8.597-0.648,12.328-2.808L386,477c0,0,7-4,11-7s4-10,4-13
				S386,445,381,440z"/>
			<path style="fill:#FFFFFF;stroke:#263238;stroke-linejoin:round;stroke-miterlimit:10;" d="M344.012,317.809c0,0-10,9-10,13
				s6,21,6,24s15,43,18,53s7,20,9,23s7,11,7,11l8.546,6.238c6.003,4.382,13.141,6.941,20.56,7.373l13.478,0.783
				c8.588,0.499,16.791-3.622,21.516-10.811l7.15-10.879c2.753-4.189,4.241-9.126,4.004-14.133
				c-0.217-4.572-1.794-8.066-8.254-16.572c-4.234-5.574-56-59-62-65S350.012,313.809,344.012,317.809z"/>
		</g>
		<path style="fill:none;stroke:#263238;stroke-linejoin:round;stroke-miterlimit:10;" d="M401,457c8,6,14,15,25,15
			c10,0,25,0,26.466,13.183"/>
		<path style="fill:none;stroke:#263238;stroke-linejoin:round;stroke-miterlimit:10;" d="M364.302,461.173
			c-2.086,0.903-3.959,1.683-4.9,1.997c-2.843,0.948-12.319,2.369-26.534,2.369c-14.215,0-32.694,0-34.589,0"/>
		<path style="fill:none;stroke:#263238;stroke-linejoin:round;stroke-miterlimit:10;" d="M373.617,457.01
			c0,0-1.945,0.891-4.428,2.004"/>
		<path style="fill:none;stroke:#263238;stroke-linejoin:round;stroke-miterlimit:10;" d="M351.035,454.833
			c6.8-2.817,12.158-5.879,12.158-5.879l-4.738-4.264"/>
		<path style="fill:none;stroke:#263238;stroke-linejoin:round;stroke-miterlimit:10;" d="M266.054,459.013
			c3.906-0.062,7.437-0.107,9.482-0.107c6.633,0,47.382,1.421,59.228,0.474c3.438-0.275,7.274-1.268,10.989-2.54"/>
		<path style="fill:none;stroke:#263238;stroke-linejoin:round;stroke-miterlimit:10;" d="M246.633,459.379
			c0,0,3.696-0.079,8.525-0.172"/>
		<path style="fill:none;stroke:#263238;stroke-linejoin:round;stroke-miterlimit:10;" d="M381.483,433.057
			c-2.9-2.747-6.444-5.898-6.444-5.898"/>
		<path style="fill:none;stroke:#263238;stroke-linejoin:round;stroke-miterlimit:10;" d="M428.825,402.191
			c0,0,2.599,5.542,4.968,9.332s4.624,13.007,2.431,17.515s-6.695,12.335-13.329,14.705c-6.633,2.369-14.688,4.738-18.479,2.843
			c-3.791-1.895-18.005-8.055-19.427-9.95"/>
		<path style="fill:#263238;stroke:#263238;stroke-linejoin:round;stroke-miterlimit:10;" d="M440.115,434.917
			c-2.532,3.14-2.825,4.984-5.758,7.142c-2.933,2.158-18.569,5.474-18.569,5.474l-14.215,2.843l-13.267-6.16l-17.057-9.476
			c0,0,9.476,9.003,12.319,11.372c2.843,2.369,8.529,5.212,10.424,6.16c1.895,0.948,11.372,2.843,14.215,2.843
			c2.539,0,10.36,0.377,15.381,0.458c5.878-1.406,11.111-4.986,14.525-10.181l7.15-10.879c2.753-4.189,4.241-9.126,4.004-14.133
			c-0.217-4.572-1.794-8.066-8.254-16.572l0.362,10.083C441.374,413.892,442.647,431.777,440.115,434.917z"/>
		<path style="fill:none;stroke:#263238;stroke-linejoin:round;stroke-miterlimit:10;" d="M237.293,388.874
			c0,0-1.175,2.35,2.35,5.483c3.525,3.134,13.709,7.834,13.709,7.834"/>
		
			<line style="fill:none;stroke:#263238;stroke-linejoin:round;stroke-miterlimit:10;" x1="256.877" y1="403.757" x2="263.536" y2="406.891"/>
		
			<line style="fill:none;stroke:#263238;stroke-linejoin:round;stroke-miterlimit:10;" x1="243.56" y1="401.799" x2="265.886" y2="412.374"/>
		<path style="fill:#FFFFFF;stroke:#263238;stroke-linejoin:round;stroke-miterlimit:10;" d="M423.24,422.317
			c0,0-42.24,40.016-42.24,42.016S386,477,386,477s19.667,4.667,23,4.667c3.333,0,13.333-2,17.333-5.333c4-3.333,16-4,18-13.333
			s8.024-12.415,4.679-21.874C445.667,431.667,441.48,414.967,423.24,422.317z"/>
		<g>
			<path style="fill:none;stroke:#263238;stroke-linejoin:round;stroke-miterlimit:10;" d="M443,437.667
				c-0.48,6.302,2.101,13.639-0.393,19.689c-2.967,7.199-11.572,9.647-17.607,13.644"/>
			<path style="fill:none;stroke:#263238;stroke-linejoin:round;stroke-miterlimit:10;" d="M437.409,453.714
				c-4.955,6.077-10.341,11.667-17.743,14.616"/>
			<path style="fill:none;stroke:#263238;stroke-linejoin:round;stroke-miterlimit:10;" d="M389,475c0,0,12,2,16.667,2.667
				c4.667,0.667,15.333-2,15.333-2"/>
		</g>
		<path style="fill:#263238;stroke:#263238;stroke-linejoin:round;stroke-miterlimit:10;" d="M127.276,487.161L128,483c0,0,0-8,0-11
			s8-23,8-29c0-3.191-3.678-8.929-7.573-13.902c0.303,2.487,1.239,10.334,1.239,12.569c0,2.667-6.667,16-10.667,16.667
			c-4,0.667-20.667-2-20.667-2s-18-1.333-22,5.333c-4,6.667-11.333,18-11.333,18l-10.947,8L127.276,487.161z"/>
		<path style="fill:none;stroke:#263238;stroke-linejoin:round;stroke-miterlimit:10;" d="M150.525,458.035
			c-3.767,2.483-6.334,4.408-6.334,4.408"/>
		<path style="fill:none;stroke:#263238;stroke-linejoin:round;stroke-miterlimit:10;" d="M197.601,446.994l-16.332,7.945
			c0,0-11.477,0.441-14.125,0.441c-1.92,0-6.159-0.928-10.195-0.261"/>
		<path style="fill:none;stroke:#263238;stroke-linejoin:round;stroke-miterlimit:10;" d="M125.983,439.269
			c0.331-1.986,0.552-3.973,0.552-4.635"/>
		<path style="fill:none;stroke:#263238;stroke-linejoin:round;stroke-miterlimit:10;" d="M103.14,453.173
			c0,0,11.035,1.766,14.125,0s6.621-7.945,7.504-9.27c0.194-0.291,0.388-0.836,0.572-1.526"/>
		<path style="fill:none;stroke:#263238;stroke-linejoin:round;stroke-miterlimit:10;" d="M97.382,449.122
			c-2.213,0.047-4.378,0.079-6.159,0.079c-6.621,0-12.359,0.441-14.566,3.531c-2.207,3.09-4.414,11.035-4.855,13.684
			c-0.441,2.648-0.441,5.738-0.441,5.738"/>
		<path style="fill:none;stroke:#263238;stroke-linejoin:round;stroke-miterlimit:10;" d="M109.761,448.759
			c0,0-2.457,0.091-5.759,0.19"/>
	</g>
</g>
<g id="Character">
	<g>
		<g>
			<path style="fill:#263238;" d="M166.339,372.128c0,0,34.083,3.883,38.828,3.883s14.237,0.431,16.394-0.431
				c2.157-0.863,9.06-6.04,9.06-6.04l11.648-1.726c0,0,3.883-2.157,5.609-2.589c1.726-0.431,12.08,0.863,12.08,0.863l18.12,1.726
				c0,0,15.1-12.08,17.257-14.668c2.157-2.589-3.02-33.651-3.02-35.808c0-2.157,4.314-15.531,5.177-18.983
				c0.863-3.451,1.726-10.354,1.726-10.354l-38.397,4.746c0,0-9.06,15.1-10.786,18.983c-1.726,3.883-1.726,6.04-1.726,8.197
				c0,2.157-0.431,6.04-0.863,9.06c-0.431,3.02-4.746,6.471-6.471,7.334c-1.726,0.863-10.354,4.314-10.354,4.314
				s-1.726,7.334-1.726,9.491s0.863,4.746,0.863,4.746s-7.334,3.883-9.491,5.177c-2.157,1.294-9.923,3.451-15.531,4.314
				c-5.609,0.863-18.551,1.726-23.297,3.02C176.693,368.677,166.339,372.128,166.339,372.128z"/>
			<path style="fill:#263238;stroke:#263238;stroke-miterlimit:10;" d="M211.309,126.985c0,0-4.201,4.201-5.92,10.312
				c-1.719,6.111,1.91,8.784,4.774,11.076c2.865,2.292,2.483,3.628,0.955,6.111c-1.528,2.482,0.191,4.774,1.719,5.347
				c1.528,0.573,3.819,0.382,3.055,3.437c-0.764,3.055-1.337,4.774,0.573,5.347c1.91,0.573,5.538,1.719,4.583,4.01
				c-0.955,2.292-0.382,5.347,0.955,5.538c1.337,0.191,3.055-1.337,3.055,0.764s-2.673,3.819,0.191,5.538s4.583,1.337,4.392,2.292
				c-0.191,0.955-1.337,2.101-0.764,3.628c0.573,1.528,2.674,1.337,2.865,2.292c0.191,0.955-0.955,1.719-0.573,3.628
				c0.382,1.91,1.146,2.101,3.056,2.483c1.91,0.382,1.91,0.382,1.91,1.91c0,1.528-0.382,1.719,1.719,1.91
				c2.101,0.191,4.201-0.382,6.875-2.482c2.674-2.101,5.538-12.413,6.493-16.614c0.955-4.201,2.865-10.121,0.191-17.569
				c-2.674-7.448-14.895-31.128-18.715-35.52c-3.819-4.392-9.93-6.302-13.75-6.302C215.128,124.12,211.309,126.985,211.309,126.985z
				"/>
			<g>
				<path style="fill:#808080;stroke:#263238;stroke-linecap:round;stroke-linejoin:round;stroke-miterlimit:10;" d="
					M239.692,225.252c0,0,0.322,1.287-2.092,2.736c-2.414,1.448-3.218,0.644-3.379,2.736c-0.161,2.092-0.161,2.736-0.483,3.218
					c-0.322,0.483-4.345,2.575-6.115,3.218c-1.77,0.644-3.218,1.931-3.218,1.931l-0.322,6.437c0,0,4.667,0,7.724-0.965
					c3.058-0.965,6.759-1.448,6.759-1.448s1.609,1.126,3.379-6.276C243.714,229.436,242.105,223.482,239.692,225.252z"/>
				<path style="fill:#A8A8A8;stroke:#263238;stroke-linejoin:round;stroke-miterlimit:10;" d="M231.967,240.539
					c0.204-2.852-0.945-4.025-1.817-4.504c-0.949,0.468-1.887,0.892-2.528,1.125c-1.77,0.644-3.218,1.931-3.218,1.931l-0.322,6.437
					c0,0,3.998-0.001,7.018-0.768C231.473,243.794,231.833,242.423,231.967,240.539z"/>
			</g>
			<path style="fill:#808080;stroke:#263238;stroke-linecap:round;stroke-linejoin:round;stroke-miterlimit:10;" d="
				M237.853,217.121c0,0,2.101,11.649-1.146,17.187c-3.246,5.538-1.528,12.413,0.191,14.704c1.719,2.292,3.819,1.91,4.965,0.382
				c1.146-1.528,4.01-9.548,3.437-20.433C244.728,218.076,238.999,213.684,237.853,217.121z"/>
			<path style="fill:#92E3A9;stroke:#263238;stroke-miterlimit:10;" d="M245.874,176.827c0,0-10.312,27.881-10.121,35.329
				c0.191,7.448,6.875,14.323,7.257,15.659c0.382,1.337-0.382,11.267-1.528,14.513c-1.146,3.246-3.437,9.357-3.437,9.357
				s7.066,4.965,15.85,5.347c8.784,0.382,16.041-2.101,16.041-2.101l3.819-2.483c0,0-5.538-14.132-8.975-25.781
				c-3.437-11.649-4.965-36.856-4.583-45.641c0.382-8.784,0.764-11.84-2.483-12.031
				C254.467,168.807,247.401,174.154,245.874,176.827z"/>
			<g>
				<g>
					<path style="fill:#A8A8A8;stroke:#263238;stroke-linecap:round;stroke-linejoin:round;stroke-miterlimit:10;" d="
						M240.234,252.508c0,0-20.847,0.887-35.262,6.21c-14.415,5.323-21.734,7.762-21.956,15.524
						c-0.222,7.762,11.089,36.149,11.089,36.149s11.976,32.823,12.419,34.819c0.443,1.996,0.222,3.992-0.222,4.657
						c-0.444,0.665,1.552,5.544,6.21,5.544c4.657,0,7.984-3.548,8.649-8.427c0.665-4.879-2.44-8.871-3.992-16.855
						c-1.526-7.849-4.436-25.948-4.436-32.379s-2.218-14.637-2.218-14.637s17.077,5.766,26.391,8.649
						c9.314,2.883,36.814,2.218,41.915,1.331c5.101-0.887,4.657-7.54,0.222-17.298c-4.436-9.758-18.407-16.411-23.286-18.629
						C250.88,254.948,240.234,252.508,240.234,252.508z"/>
					<path style="fill:#263238;stroke:#263238;stroke-miterlimit:10;" d="M255.759,257.165c-4.879-2.218-15.524-4.657-15.524-4.657
						s-20.847,0.887-35.262,6.21c-14.415,5.323-21.734,7.762-21.956,15.524c-0.222,7.762,11.089,36.149,11.089,36.149
						s6.171,16.914,9.818,27.197c3.554-0.598,8.621-2.355,13.292-7.245c-0.015-0.073-0.031-0.14-0.045-0.214
						c-1.526-7.849-4.436-25.948-4.436-32.379s-2.218-14.637-2.218-14.637s17.077,5.766,26.391,8.649
						c9.314,2.883,36.814,2.218,41.915,1.331c5.101-0.887,4.657-7.54,0.222-17.298C274.609,266.036,260.638,259.383,255.759,257.165
						z"/>
				</g>
				<g>
					<path style="fill:#FFFFFF;stroke:#263238;stroke-linejoin:round;stroke-miterlimit:10;" d="M206.963,350.201
						c0,0-0.605-2.018-1.614-0.404c-1.009,1.614-1.009,4.237-1.816,5.044c-0.807,0.807-2.623,4.439-7.061,6.658
						c-4.439,2.219-8.474,3.43-8.877,5.044c-0.404,1.614,2.421,3.026,6.86,3.228c4.439,0.202,13.316,0.404,17.149-0.605
						c3.833-1.009,6.053-3.43,10.29-4.842c4.237-1.412,7.062-1.614,7.869-3.43c0.807-1.816-2.825-11.298-4.439-13.114
						c-1.614-1.816-2.421-4.439-4.035-4.439c-1.614,0-2.018,2.018-2.219,3.632c-0.202,1.614-0.404,3.833-4.439,4.842
						C210.594,352.823,206.963,350.201,206.963,350.201z"/>
					<path style="fill:#92E3A9;stroke:#263238;stroke-miterlimit:10;" d="M206.761,367.552c-6.365,1.469-15.765-0.363-19.125-1.116
						c-0.013,0.036-0.033,0.071-0.042,0.107c-0.404,1.614,2.421,3.026,6.86,3.228c4.439,0.202,13.316,0.404,17.149-0.605
						c3.833-1.009,6.053-3.43,10.29-4.842c4.237-1.412,7.062-1.614,7.869-3.43c0.268-0.603,0.041-2.056-0.433-3.787
						c-1.078,0.436-2.429,1.019-4.006,1.769C221.086,360.894,214.63,365.736,206.761,367.552z"/>
				</g>
			</g>
			<g>
				<g>
					<path style="fill:#A8A8A8;stroke:#263238;stroke-linecap:round;stroke-linejoin:round;stroke-miterlimit:10;" d="
						M246.666,252.73c0,0-18.186,4.657-29.052,7.319c-10.867,2.661-18.186,4.879-18.851,12.641
						c-0.665,7.762-8.206,61.875-9.536,65.645c-1.331,3.77-3.992,14.415-3.992,17.077c0,2.661,1.774,5.766,5.988,6.21
						c4.214,0.444,6.432-1.552,7.097-3.548c0.665-1.996,2.661-7.54,5.101-15.524s11.976-21.956,14.415-33.488
						c2.439-11.532,1.331-22.399,1.331-22.399s8.871,1.331,17.964,4.214s34.375,3.548,48.569,2.44
						c14.193-1.109,18.185-9.093,18.407-15.524c0.222-6.431-6.21-17.52-9.98-21.29c-3.77-3.77-10.645-4.657-23.286-4.879
						C258.198,251.399,246.666,252.73,246.666,252.73z"/>
					<path style="fill:#263238;stroke:#263238;stroke-miterlimit:10;" d="M304.105,277.79c0.222-6.431-6.21-17.52-9.98-21.29
						c-3.77-3.77-10.645-4.657-23.286-4.879c-12.641-0.222-24.173,1.109-24.173,1.109s-18.186,4.657-29.052,7.319
						c-10.867,2.661-18.186,4.879-18.851,12.641c-0.665,7.762-8.206,61.875-9.536,65.645c-0.265,0.751-0.584,1.782-0.923,2.962
						c2.992,1.755,7.771,3.744,14.265,4.001c0.277-0.881,0.561-1.796,0.852-2.749c2.439-7.984,11.976-21.956,14.415-33.488
						c2.439-11.532,1.331-22.399,1.331-22.399s8.871,1.331,17.964,4.214s34.375,3.548,48.569,2.44
						C299.892,292.206,303.884,284.222,304.105,277.79z"/>
				</g>
				<g>
					<path style="fill:#FFFFFF;stroke:#263238;stroke-linejoin:round;stroke-miterlimit:10;" d="M184.949,351.423
						c0,0-0.468-0.691-2.342,1.382c-1.874,2.073-6.09,5.988-11.711,8.29c-5.622,2.303-11.712,2.994-13.351,4.836
						c-1.64,1.842-0.469,4.376,0,5.066c0.468,0.691,16.396,2.303,24.36,2.303c7.964,0,17.567-0.23,19.207-0.921
						c1.64-0.691,1.874-5.066,1.64-7.83c-0.234-2.763-1.405-4.375-1.405-5.757c0-1.382,0.703-3.685,0-4.606
						c-0.703-0.921-3.748,1.842-5.387,2.994c-1.64,1.152-7.495,0.921-8.667-0.23C186.12,355.799,185.886,351.423,184.949,351.423z"
						/>
					<path style="fill:#92E3A9;stroke:#263238;stroke-miterlimit:10;" d="M183.544,370.307c-9.672,0-21.902-1.258-26.833-1.814
						c0.074,1.12,0.567,2.111,0.834,2.505c0.468,0.691,16.396,2.303,24.36,2.303c7.964,0,17.567-0.23,19.207-0.921
						c0.891-0.375,1.364-1.84,1.576-3.54C198.626,369.452,191.523,370.307,183.544,370.307z"/>
				</g>
			</g>
			<g>
				<path style="fill:#A8A8A8;stroke:#263238;stroke-linecap:round;stroke-linejoin:round;stroke-miterlimit:10;" d="
					M217.611,132.905c0,0-4.01,5.729-3.628,10.121c0.382,4.392,1.91,5.538,3.055,6.875c1.146,1.337,2.483,3.437,1.91,6.684
					c-0.573,3.246-1.528,3.819-0.955,5.156c0.573,1.337,4.392,1.719,4.392,1.719s4.583,5.156,6.684,6.875
					c2.101,1.719,4.01,2.674,6.111,1.337c2.101-1.337,4.201-2.865,4.774-3.437c0.573-0.573,4.965,5.729,5.729,9.739
					c0.764,4.01-2.292,8.402-0.573,8.975c1.719,0.573,4.583-4.392,6.493-9.357c1.91-4.965,3.819-5.92,3.819-5.92
					s-10.885-22.343-17.951-31.701c-7.066-9.357-14.132-10.503-16.614-9.739C218.374,130.995,217.611,132.905,217.611,132.905z"/>
				<path style="fill:none;stroke:#263238;stroke-linecap:round;stroke-linejoin:round;stroke-miterlimit:10;" d="M227.732,163.078
					c0,0,3.628-0.955,4.01-3.819"/>
				<path style="fill:none;stroke:#263238;stroke-linecap:round;stroke-linejoin:round;stroke-miterlimit:10;" d="M218.756,149.901
					c0,0,2.483,4.01,4.392,4.392c1.91,0.382,5.156-0.764,5.729-3.437c0.573-2.674-1.146-5.538-1.146-5.538
					S222.003,146.464,218.756,149.901z"/>
				<path style="fill:none;stroke:#263238;stroke-linecap:round;stroke-linejoin:round;stroke-miterlimit:10;" d="M218.756,149.901
					l-3.055,2.292c0,0,0.573,1.91,2.865,2.674"/>
				
					<line style="fill:none;stroke:#263238;stroke-linecap:round;stroke-linejoin:round;stroke-miterlimit:10;" x1="227.732" y1="145.318" x2="238.044" y2="141.307"/>
				<path style="fill:#263238;" d="M225.189,151.241c0.494,0.951,0.604,1.873,0.245,2.06c-0.359,0.187-1.051-0.433-1.545-1.384
					c-0.494-0.951-0.604-1.873-0.245-2.06C224.003,149.67,224.695,150.29,225.189,151.241z"/>
				<path style="fill:none;stroke:#263238;stroke-linecap:round;stroke-linejoin:round;stroke-miterlimit:10;" d="M219.138,147.227
					c0,0,0.955-2.482,4.392-2.482"/>
			</g>
			<path style="fill:#263238;stroke:#263238;stroke-miterlimit:10;" d="M217.611,131.377c0,0-0.573,2.292,1.91,3.055
				c2.482,0.764,5.156-0.191,4.774,2.674c-0.382,2.865-2.101,4.201,1.337,4.774c3.437,0.573,4.774,0,4.774,3.819
				c0,3.819-2.483,5.156,1.528,6.111c4.01,0.955,6.111,0.382,5.538,4.583c-0.573,4.201-2.865,5.729,0.191,6.875
				c3.055,1.146,5.347-0.573,5.347,2.674c0,3.246,0,5.156,1.91,5.538c1.91,0.382,3.437-2.101,3.819,0.573
				c0.382,2.673,0.573,4.01,2.101,4.201c1.528,0.191,1.91-1.528,4.01-0.955c2.101,0.573,10.312-3.437,12.795-6.111
				c2.483-2.673,6.684-2.101,9.93,2.292c3.246,4.392,9.93,18.715,10.312,21.579c0.382,2.865,0.955,3.437,3.246,0.191
				c2.292-3.246,4.201-6.493,2.292-9.739c-1.91-3.246-3.246-2.673-1.91-6.302c1.337-3.628,4.01-5.156,1.337-8.402
				c-2.673-3.247-3.437-2.483-2.865-6.875c0.573-4.392,1.528-4.965-1.337-6.684s-3.819-1.91-3.819-4.774
				c0-2.865,1.337-4.774-1.337-6.302c-2.673-1.528-3.437-1.146-3.437-3.628c0-2.482,0.573-3.437-1.337-4.774
				c-1.91-1.337-3.628-2.292-3.628-4.774s0-2.674-1.719-4.01c-1.719-1.337-2.865-3.056-3.055-4.774
				c-0.191-1.719-1.146-3.437-2.483-3.819c-1.337-0.382-2.292,0.764-3.246-1.528c-0.955-2.292-1.528-3.437-3.246-3.628
				c-1.719-0.191-3.628-1.146-4.774-2.674c-1.146-1.528-1.91-2.292-3.437-1.719c-1.528,0.573-5.156,0.764-6.684-0.573
				c-1.528-1.337-4.01-2.101-5.92-0.573c-1.91,1.528-3.819,1.91-5.538,1.337c-1.719-0.573-3.437-0.573-4.583,0.573
				c-1.146,1.146-0.955,1.91-3.247,1.337c-2.292-0.573-4.392-0.573-5.538,1.146s-2.483,2.483-3.628,3.056
				c-1.146,0.573-3.819,1.146-4.201,3.246c-0.382,2.101-0.191,3.055-1.146,3.819c-0.955,0.764-2.483,2.674-2.483,4.01
				c0,1.337,2.292,3.819,4.583,4.201"/>
			<g>
				<g>
					<path style="fill:#808080;stroke:#263238;stroke-linecap:round;stroke-linejoin:round;stroke-miterlimit:10;" d="
						M253.703,177.018c0,0-0.955,26.162-1.719,39.339c-0.764,13.177,3.246,17.951,5.729,21.197
						c2.483,3.246,25.78,33.992,27.117,37.238c1.337,3.246,2.674,8.975,3.246,9.548c0.573,0.573,6.302-0.191,10.503-1.337
						c4.201-1.146,6.684-5.347,6.684-5.347s1.146-5.156-1.719-13.368c-2.865-8.211-6.493-13.559-6.875-19.288
						c-0.382-5.729-3.246-25.398-4.201-34.565c-0.955-9.166-3.819-20.624-5.538-26.544c-1.719-5.92-3.437-10.121-6.302-12.795
						c-2.864-2.674-6.493-4.392-6.493-4.392L253.703,177.018z"/>
					<path style="fill:#575757;stroke:#263238;stroke-linecap:round;stroke-linejoin:round;stroke-miterlimit:10;" d="
						M291.133,264.481l-3.056,19.861l-5.538-11.458C282.539,272.883,289.414,264.672,291.133,264.481z"/>
					<path style="fill:#808080;stroke:#263238;stroke-linecap:round;stroke-linejoin:round;stroke-miterlimit:10;" d="
						M257.141,236.791c0,0,17.76,15.468,25.208,20.815c7.448,5.347,8.784,6.875,8.784,6.875s-10.121,15.086-10.694,15.086
						s-4.01-8.211-7.83-14.513C268.79,258.752,257.523,239.846,257.141,236.791z"/>
				</g>
				<polygon style="fill:#808080;stroke:#263238;stroke-linecap:round;stroke-linejoin:round;stroke-miterlimit:10;" points="
					272.418,160.786 251.603,173.772 254.276,180.838 276.619,166.133 				"/>
			</g>
			<g>
				<polygon style="fill:#FFFFFF;stroke:#263238;stroke-linejoin:round;stroke-miterlimit:10;" points="194.634,257.757 
					216.841,265.642 249.668,252.608 228.867,246.376 				"/>
				<g>
					<polygon style="fill:#FFFFFF;stroke:#263238;stroke-width:0.5;stroke-linejoin:round;stroke-miterlimit:10;" points="
						226.959,257.491 224.078,256.566 220.628,257.963 223.653,258.936 					"/>
					<polygon style="fill:#FFFFFF;stroke:#263238;stroke-width:0.5;stroke-linejoin:round;stroke-miterlimit:10;" points="
						220.376,254.328 225.749,252.332 224.154,251.87 218.779,253.815 					"/>
					<polygon style="fill:#FFFFFF;stroke:#263238;stroke-width:0.5;stroke-linejoin:round;stroke-miterlimit:10;" points="
						213.579,255.697 215.246,256.233 218.861,254.891 217.243,254.371 					"/>
					<polygon style="fill:#FFFFFF;stroke:#263238;stroke-width:0.5;stroke-linejoin:round;stroke-miterlimit:10;" points="
						210.291,254.64 212.023,255.197 215.686,253.872 213.979,253.323 					"/>
					<polygon style="fill:#FFFFFF;stroke:#263238;stroke-width:0.5;stroke-linejoin:round;stroke-miterlimit:10;" points="
						210.487,255.753 208.55,255.13 205.755,255.899 208.009,256.65 					"/>
					<polygon style="fill:#FFFFFF;stroke:#263238;stroke-width:0.5;stroke-linejoin:round;stroke-miterlimit:10;" points="
						224.038,255.504 229.316,253.366 227.362,252.8 221.917,254.823 					"/>
					<polygon style="fill:#FFFFFF;stroke:#263238;stroke-width:0.5;stroke-linejoin:round;stroke-miterlimit:10;" points="
						217.698,258.071 215.272,257.291 212.746,258.229 215.248,259.063 					"/>
					<polygon style="fill:#FFFFFF;stroke:#263238;stroke-width:0.5;stroke-linejoin:round;stroke-miterlimit:10;" points="
						206.253,259.573 209.735,258.28 208.02,257.709 204.503,258.982 					"/>
					<polygon style="fill:#FFFFFF;stroke:#263238;stroke-width:0.5;stroke-linejoin:round;stroke-miterlimit:10;" points="
						222.592,256.089 220.402,255.386 216.787,256.728 219.143,257.486 					"/>
					<polygon style="fill:#FFFFFF;stroke:#263238;stroke-width:0.5;stroke-linejoin:round;stroke-miterlimit:10;" points="
						209.537,257.16 211.231,257.724 213.731,256.796 212.043,256.253 					"/>
					<polygon style="fill:#FFFFFF;stroke:#263238;stroke-width:0.5;stroke-linejoin:round;stroke-miterlimit:10;" points="
						206.492,257.199 204.021,256.376 200.035,257.472 202.985,258.469 					"/>
					<polygon style="fill:#FFFFFF;stroke:#263238;stroke-width:0.5;stroke-linejoin:round;stroke-miterlimit:10;" points="
						219.898,261.668 216.649,263.087 218,263.544 221.542,262.216 					"/>
					<polygon style="fill:#FFFFFF;stroke:#263238;stroke-width:0.5;stroke-linejoin:round;stroke-miterlimit:10;" points="
						230.868,253.816 225.523,255.981 228.343,256.886 233.574,254.6 					"/>
					<polygon style="fill:#FFFFFF;stroke:#263238;stroke-width:0.5;stroke-linejoin:round;stroke-miterlimit:10;" points="
						217.223,253.315 222.522,251.397 220.783,250.893 215.526,252.771 					"/>
					<polygon style="fill:#FFFFFF;stroke:#263238;stroke-width:0.5;stroke-linejoin:round;stroke-miterlimit:10;" points="
						229.783,257.348 232.336,258.168 238.242,255.954 235.075,255.036 					"/>
					<polygon style="fill:#FFFFFF;stroke:#263238;stroke-width:0.5;stroke-linejoin:round;stroke-miterlimit:10;" points="
						218.481,261.196 215.281,260.129 211.921,261.49 215.241,262.612 					"/>
					<polygon style="fill:#FFFFFF;stroke:#263238;stroke-width:0.5;stroke-linejoin:round;stroke-miterlimit:10;" points="
						222.269,259.54 219.183,258.548 216.709,259.55 219.85,260.597 					"/>
					<polygon style="fill:#FFFFFF;stroke:#263238;stroke-width:0.5;stroke-linejoin:round;stroke-miterlimit:10;" points="
						211.249,258.785 207.758,260.082 210.469,260.999 213.82,259.642 					"/>
					<polygon style="fill:#FFFFFF;stroke:#263238;stroke-width:0.5;stroke-linejoin:round;stroke-miterlimit:10;" points="
						225.719,260.65 223.708,260.003 221.267,261.069 223.031,261.658 					"/>
					<polygon style="fill:#FFFFFF;stroke:#263238;stroke-width:0.5;stroke-linejoin:round;stroke-miterlimit:10;" points="
						225.092,259.398 227.227,260.084 230.829,258.733 228.398,257.953 					"/>
				</g>
				<polygon style="fill:#FFFFFF;stroke:#263238;stroke-linejoin:round;stroke-miterlimit:10;" points="216.841,265.642 
					201.393,230.24 176.933,226.539 190.591,257.051 				"/>
			</g>
			<g>
				<g>
					<path style="fill:#808080;stroke:#263238;stroke-linecap:round;stroke-linejoin:round;stroke-miterlimit:10;" d="
						M262.106,188.667c0,0-3.056,7.83-2.483,14.132c0.573,6.302,5.92,19.67,6.684,23.489c0.764,3.819-0.191,6.111-0.191,6.111
						s-0.955-1.146-1.719,0.955c-0.764,2.101-3.056,7.83-3.056,7.83l-1.91,0.955l7.83,14.704l2.483,4.201
						c0,0,5.729-2.865,7.83-4.774c2.101-1.91,7.639-3.437,9.93-6.302c2.292-2.865,0.764-2.865,2.483-7.066
						c1.719-4.201,2.674-13.75,1.528-16.614c-1.146-2.865-2.292-3.628-2.292-6.493c0-2.864,2.674-7.83,0.573-15.468
						c-2.101-7.639-3.628-19.669-7.066-22.916c-3.437-3.247-6.302-2.674-8.212-2.674"/>
					<path style="fill:none;stroke:#263238;stroke-miterlimit:10;" d="M278.121,243.314c1.151,0.797,2.068,1.365,2.508,1.497"/>
					<path style="fill:none;stroke:#263238;stroke-miterlimit:10;" d="M267.835,235.454c0,0,4.471,3.608,8.184,6.35"/>
					<path style="fill:none;stroke:#263238;stroke-miterlimit:10;" d="M272.227,235.645c0,0,11.649,3.437,11.076,4.583
						s-5.538-1.146-6.493-1.528"/>
				</g>
				<g>
					<path style="fill:#A8A8A8;stroke:#263238;stroke-miterlimit:10;" d="M252.748,248.631c0,0-17.951,10.312-19.288,10.312
						c-1.337,0-5.538-3.055-6.875-2.674c-1.337,0.382-3.437,1.528-5.156,2.292c-1.719,0.764-4.965-0.191-5.156,1.146
						c-0.191,1.337,1.337,2.292,1.337,2.292s-3.819,0.764-4.583,0.764s-1.719,1.528,0,2.865c1.719,1.337,4.774,1.528,5.347,1.719
						c0.573,0.191,3.819,1.91,6.493,1.91c2.674,0,8.212-2.865,11.84-3.819c3.628-0.955,22.343-6.111,22.343-6.111
						S255.613,248.631,252.748,248.631z"/>
					<path style="fill:#FFFFFF;stroke:#263238;stroke-miterlimit:10;" d="M217.611,261.998c0,0,3.628,0.764,6.875-0.191"/>
				</g>
				<path style="fill:#808080;stroke:#263238;stroke-linecap:round;stroke-linejoin:round;stroke-miterlimit:10;" d="
					M261.724,240.037c0,0,5.92,9.166,9.357,15.277c3.437,6.111,2.292,6.493,1.337,7.448s-8.021,2.101-10.312,2.483
					c-2.292,0.382-4.583-1.146-4.583-3.437s-2.864-8.212-4.01-10.312c-1.146-2.101-2.865-1.719-2.865-3.437s3.819-4.01,5.538-5.538
					C257.904,240.992,260.387,239.846,261.724,240.037z"/>
			</g>
			<g>
				<path style="fill:#A8A8A8;stroke:#263238;stroke-linejoin:round;stroke-miterlimit:10;" d="M218.289,233.62
					c0,0,5.31,2.414,7.08,3.54c1.77,1.126,4.506,2.253,4.345,3.54c-0.161,1.287-3.54,5.31-4.989,5.632
					c-1.448,0.322-4.506-1.931-6.437-1.931c-1.931,0-3.701-5.149-3.058-6.919C215.876,235.712,217.002,233.781,218.289,233.62z"/>
				<path style="fill:#A8A8A8;stroke:#263238;stroke-linejoin:round;stroke-miterlimit:10;" d="M211.37,240.539
					c0,0-1.609,1.448-1.609,2.736c0,1.287,0.805,5.149,1.77,5.954s1.448-0.322,1.448-1.287c0-0.966-1.448-1.77-0.805-3.058
					c0.644-1.287,1.448-3.379,1.448-3.379S212.657,239.895,211.37,240.539z"/>
				<path style="fill:#A8A8A8;stroke:#263238;stroke-linejoin:round;stroke-miterlimit:10;" d="M214.588,238.447
					c0,0-2.092-0.322-3.218,1.287c-1.126,1.609-0.161,3.379,0.805,5.149c0.965,1.77,2.575,2.414,3.862,2.575
					c1.287,0.161,1.931-0.322,0.805-1.77c-1.126-1.448-1.931-4.023-2.092-4.506C214.588,240.7,214.588,238.447,214.588,238.447z"/>
				<path style="fill:#A8A8A8;stroke:#263238;stroke-linejoin:round;stroke-miterlimit:10;" d="M216.841,234.424
					c0,0-3.057,1.77-3.057,3.218c0,1.448,0.644,4.827,1.448,6.598c0.805,1.77,3.218,4.023,3.54,3.218
					c0.322-0.805-0.322-2.896-0.644-4.506c-0.322-1.609-0.805-7.563-0.805-7.563S217.807,234.585,216.841,234.424z"/>
				<path style="fill:#A8A8A8;stroke:#263238;stroke-linejoin:round;stroke-miterlimit:10;" d="M220.381,235.872
					c0,0-1.448-2.736-3.218-2.736c-1.77,0-0.644,1.931-0.483,5.632s0.965,7.402,2.092,8.69c1.126,1.287,1.77,0.322,1.448-1.931
					c-0.322-2.253-0.483-5.632-0.483-6.115c0-0.483,0-1.127,0-1.127"/>
				<path style="fill:#A8A8A8;stroke:#263238;stroke-linejoin:round;stroke-miterlimit:10;" d="M224.887,240.539
					c0,0-0.322,2.092-1.287,3.218c-0.965,1.126-2.092,3.057-1.287,3.54c0.805,0.483,1.609,0,2.414-0.965
					c0.805-0.965,2.897-2.736,3.862-4.506c0.965-1.77-0.322-3.701-1.448-3.862s-1.931-0.161-1.931-0.161"/>
			</g>
		</g>
		<path style="fill:#263238;stroke:#263238;stroke-linejoin:round;stroke-miterlimit:10;" d="M262.634,366.5
			c0,0,10.472,13.239,20.548,13.239c10.076,0,19.311-1.679,26.029-1.679c6.717,0,23.51-2.519,28.547-5.038
			c5.038-2.519,2.519-5.038-1.679-7.557c-4.198-2.519-25.189-12.595-25.189-12.595L262.634,366.5z"/>
		<g>
			<g>
				<path style="fill:#A8A8A8;stroke:#263238;stroke-miterlimit:10;" d="M256.424,309.06c0,0-6.653,10.867-14.637,21.069
					c-7.984,10.202-12.198,12.198-13.972,16.855c-1.774,4.657-0.887,9.093,0.665,10.202c1.552,1.109,17.298,4.214,21.29,4.436
					c3.992,0.222,8.649-0.665,8.649-0.665l0.444-1.996c0,0-7.097,0.222-8.871,0c-1.774-0.222-8.871-5.323-11.311-6.875
					s-3.548-2.218-3.548-2.218s6.432-8.427,13.528-15.746c7.097-7.319,12.419-15.968,12.419-15.968S259.751,306.843,256.424,309.06z
					"/>
				<path style="fill:#FFFFFF;stroke:#263238;stroke-linejoin:round;stroke-miterlimit:10;" d="M235.134,349.867
					c0,0-2.883,3.992-2.883,5.544"/>
			</g>
			<g>
				<path style="fill:#A8A8A8;stroke:#263238;stroke-miterlimit:10;" d="M291.908,286.661c0,0-20.181,3.992-24.839,4.879
					c-4.657,0.887-6.653,2.218-9.093,7.762c-2.439,5.544-3.77,7.762-2.661,13.085c1.109,5.323,1.552,24.395,1.552,32.601
					c0,8.206-1.774,13.75-0.443,16.411c1.331,2.661,5.101,4.214,6.21,5.101c1.109,0.887,9.98,3.992,12.641,4.657
					c2.661,0.665,6.431,3.548,9.758,3.548s10.867-2.661,15.968-4.879c5.101-2.218,12.641-1.774,16.411-3.548
					c3.77-1.774,5.544-3.105,4.657-7.762c-0.887-4.657-4.435-7.762-5.101-13.085c-0.665-5.323-0.222-13.306-1.331-17.298
					c-1.109-3.992-3.77-8.649-4.435-15.524c-0.665-6.875,0.443-15.968-1.996-19.294c-2.44-3.327-1.552-2.661-5.766-4.214
					C299.227,287.548,295.678,284.665,291.908,286.661z"/>
				<path style="fill:#FFFFFF;stroke:#263238;stroke-miterlimit:10;" d="M286.807,296.641c9.98-2.218,12.419-3.105,15.968-4.879
					c3.548-1.774,5.101,0.222,5.101,0.222l0.257-0.156c-1.212-1.668-1.266-1.465-4.692-2.727c-4.214-1.552-7.762-4.435-11.532-2.44
					c0,0-20.181,3.992-24.839,4.879c-4.657,0.887-6.653,2.218-9.093,7.762c-2.439,5.544-3.77,7.762-2.661,13.085
					c1.109,5.323,1.552,24.395,1.552,32.601c0,8.206-1.774,13.75-0.443,16.411c1.331,2.661,5.101,4.214,6.21,5.101
					c0.501,0.401,2.588,1.254,4.968,2.13c0.088-0.201,0.07-0.396-0.089-0.578c-1.552-1.774,0.665-8.871,1.996-18.407
					c1.331-9.536,0.887-25.061-0.444-29.496c-1.331-4.435-3.992-9.536-2.218-14.415
					C268.622,300.855,276.827,298.859,286.807,296.641z"/>
				<path style="fill:#FFFFFF;stroke:#263238;stroke-miterlimit:10;" d="M276.162,332.125c0,0-0.887,25.504-1.552,31.048
					c-0.665,5.544-1.552,6.431-0.887,7.54c0.665,1.109,7.54,3.77,9.98,3.77c2.439,0,3.327,0.222,3.548-2.661
					c0.222-2.883-1.996-23.508-1.774-28.387c0.222-4.879,1.552-9.758-1.109-11.31C281.706,330.573,278.823,326.802,276.162,332.125z
					"/>
				<path style="fill:#FFFFFF;stroke:#263238;stroke-linejoin:round;stroke-miterlimit:10;" d="M308.711,318.153
					c0,0-13.085,4.436-21.29,7.097c-8.206,2.661-11.089,2.44-11.532,5.101c-0.444,2.661,0,2.661,1.109,3.105
					c1.109,0.444,3.327,2.218,4.436,5.544c1.109,3.327,2.218,5.988,3.77,5.988s24.395-3.548,28.165-5.101
					c3.77-1.552,5.323-1.996,4.879-4.435c-0.443-2.44-0.665-6.653-1.552-11.754C315.807,318.597,312.259,316.823,308.711,318.153z"
					/>
				<polygon style="fill:#263238;stroke:#263238;stroke-linejoin:round;stroke-miterlimit:10;" points="290.355,339.222 
					292.352,355.855 295.678,354.746 293.254,338.36 				"/>
				<polygon style="fill:#263238;stroke:#263238;stroke-linejoin:round;stroke-miterlimit:10;" points="310.603,335.386 
					313.642,350.976 316.525,350.089 313.642,334.343 				"/>
				<path style="fill:#FFFFFF;stroke:#263238;stroke-linejoin:round;stroke-miterlimit:10;" d="M274.166,308.173
					c0,0,7.319-1.552,16.19-3.77c8.871-2.218,17.077-4.879,17.077-4.879v2.44c0,0-9.98,3.105-15.302,4.214
					s-10.423,1.774-11.311,1.996c-0.887,0.222-3.548,0.887-4.879,1.331c-1.331,0.444-1.331,0.444-1.331,0.444L274.166,308.173z"/>
			</g>
		</g>
	</g>
</g>
</svg>
