<svg width="98" height="24" viewBox="0 0 98 24" fill="none" xmlns="http://www.w3.org/2000/svg">
<path d="M2.064 23.256C1.424 23.256 0.933333 23.0853 0.592 22.744C0.250667 22.3813 0.0800002 21.8693 0.0800002 21.208V9.112C0.0800002 8.45067 0.250667 7.94933 0.592 7.608C0.933333 7.26667 1.41333 7.096 2.032 7.096C2.65067 7.096 3.13067 7.26667 3.472 7.608C3.81333 7.94933 3.984 8.45067 3.984 9.112V11.288L3.632 10.488C4.10133 9.35733 4.82667 8.504 5.808 7.928C6.81067 7.33067 7.94133 7.032 9.2 7.032C10.4587 7.032 11.4933 7.26667 12.304 7.736C13.1147 8.20533 13.7227 8.92 14.128 9.88C14.5333 10.8187 14.736 12.0133 14.736 13.464V21.208C14.736 21.8693 14.5653 22.3813 14.224 22.744C13.8827 23.0853 13.392 23.256 12.752 23.256C12.112 23.256 11.6107 23.0853 11.248 22.744C10.9067 22.3813 10.736 21.8693 10.736 21.208V13.656C10.736 12.44 10.5013 11.5547 10.032 11C9.584 10.4453 8.88 10.168 7.92 10.168C6.74667 10.168 5.808 10.5413 5.104 11.288C4.42133 12.0133 4.08 12.984 4.08 14.2V21.208C4.08 22.5733 3.408 23.256 2.064 23.256ZM25.9348 23.32C24.3134 23.32 22.9054 22.9893 21.7108 22.328C20.5161 21.6667 19.5881 20.728 18.9268 19.512C18.2654 18.2747 17.9348 16.824 17.9348 15.16C17.9348 13.9013 18.1161 12.7813 18.4788 11.8C18.8628 10.7973 19.4068 9.944 20.1108 9.24C20.8148 8.51467 21.6574 7.97067 22.6388 7.608C23.6201 7.224 24.7188 7.032 25.9348 7.032C27.5561 7.032 28.9641 7.36267 30.1588 8.024C31.3534 8.68533 32.2814 9.624 32.9428 10.84C33.6041 12.056 33.9348 13.496 33.9348 15.16C33.9348 16.4187 33.7428 17.5493 33.3588 18.552C32.9961 19.5547 32.4628 20.4187 31.7588 21.144C31.0548 21.848 30.2121 22.392 29.2308 22.776C28.2494 23.1387 27.1508 23.32 25.9348 23.32ZM25.9348 20.28C26.7241 20.28 27.4174 20.088 28.0148 19.704C28.6121 19.32 29.0708 18.7547 29.3908 18.008C29.7321 17.24 29.9028 16.2907 29.9028 15.16C29.9028 13.4533 29.5401 12.184 28.8148 11.352C28.0894 10.4987 27.1294 10.072 25.9348 10.072C25.1454 10.072 24.4521 10.264 23.8548 10.648C23.2574 11.0107 22.7881 11.576 22.4468 12.344C22.1268 13.0907 21.9668 14.0293 21.9668 15.16C21.9668 16.8453 22.3294 18.1253 23.0548 19C23.7801 19.8533 24.7401 20.28 25.9348 20.28ZM39.2843 23.256C38.6443 23.256 38.1536 23.0853 37.8123 22.744C37.4709 22.3813 37.3003 21.8693 37.3003 21.208V9.112C37.3003 8.45067 37.4709 7.94933 37.8123 7.608C38.1536 7.26667 38.6336 7.096 39.2523 7.096C39.8709 7.096 40.3509 7.26667 40.6923 7.608C41.0336 7.94933 41.2043 8.45067 41.2043 9.112V11.448L40.8523 10.488C41.2789 9.42133 41.9403 8.57867 42.8363 7.96C43.7323 7.34133 44.7989 7.032 46.0363 7.032C47.2949 7.032 48.3296 7.33067 49.1403 7.928C49.9509 8.52533 50.5163 9.44267 50.8363 10.68H50.3883C50.8149 9.54933 51.5189 8.664 52.5003 8.024C53.4816 7.36267 54.6123 7.032 55.8923 7.032C57.0869 7.032 58.0683 7.26667 58.8363 7.736C59.6256 8.20533 60.2123 8.92 60.5963 9.88C60.9803 10.8187 61.1723 12.0133 61.1723 13.464V21.208C61.1723 21.8693 60.9909 22.3813 60.6283 22.744C60.2869 23.0853 59.7963 23.256 59.1563 23.256C58.5163 23.256 58.0256 23.0853 57.6843 22.744C57.3429 22.3813 57.1723 21.8693 57.1723 21.208V13.624C57.1723 12.4293 56.9696 11.5547 56.5643 11C56.1803 10.4453 55.5189 10.168 54.5803 10.168C53.5349 10.168 52.7136 10.5413 52.1163 11.288C51.5189 12.0133 51.2203 13.0267 51.2203 14.328V21.208C51.2203 21.8693 51.0496 22.3813 50.7083 22.744C50.3669 23.0853 49.8763 23.256 49.2363 23.256C48.5963 23.256 48.0949 23.0853 47.7323 22.744C47.3909 22.3813 47.2203 21.8693 47.2203 21.208V13.624C47.2203 12.4293 47.0176 11.5547 46.6123 11C46.2283 10.4453 45.5776 10.168 44.6603 10.168C43.6149 10.168 42.7936 10.5413 42.1963 11.288C41.5989 12.0133 41.3003 13.0267 41.3003 14.328V21.208C41.3003 22.5733 40.6283 23.256 39.2843 23.256ZM73.0108 23.32C71.2401 23.32 69.7148 22.9893 68.4348 22.328C67.1548 21.6667 66.1628 20.728 65.4588 19.512C64.7761 18.296 64.4348 16.856 64.4348 15.192C64.4348 13.5707 64.7654 12.152 65.4268 10.936C66.1094 9.72 67.0374 8.77067 68.2108 8.088C69.4054 7.384 70.7601 7.032 72.2748 7.032C73.3841 7.032 74.3761 7.21333 75.2508 7.576C76.1468 7.93867 76.9041 8.46133 77.5228 9.144C78.1628 9.82667 78.6428 10.6587 78.9628 11.64C79.3041 12.6 79.4748 13.688 79.4748 14.904C79.4748 15.288 79.3361 15.5867 79.0588 15.8C78.8028 15.992 78.4294 16.088 77.9388 16.088H67.6668V13.784H76.6588L76.1468 14.264C76.1468 13.2827 75.9974 12.4613 75.6988 11.8C75.4214 11.1387 75.0054 10.6373 74.4508 10.296C73.9174 9.93333 73.2454 9.752 72.4348 9.752C71.5388 9.752 70.7708 9.96533 70.1308 10.392C69.5121 10.7973 69.0321 11.384 68.6908 12.152C68.3708 12.8987 68.2108 13.7947 68.2108 14.84V15.064C68.2108 16.8133 68.6161 18.1253 69.4268 19C70.2588 19.8533 71.4748 20.28 73.0748 20.28C73.6294 20.28 74.2481 20.216 74.9308 20.088C75.6348 19.9387 76.2961 19.6933 76.9148 19.352C77.3628 19.096 77.7574 18.9893 78.0988 19.032C78.4401 19.0533 78.7068 19.1707 78.8988 19.384C79.1121 19.5973 79.2401 19.864 79.2828 20.184C79.3254 20.4827 79.2614 20.792 79.0908 21.112C78.9414 21.432 78.6748 21.7093 78.2908 21.944C77.5441 22.4133 76.6801 22.7653 75.6988 23C74.7388 23.2133 73.8428 23.32 73.0108 23.32ZM84.6265 23.256C83.9865 23.256 83.4958 23.0853 83.1545 22.744C82.8132 22.3813 82.6425 21.8693 82.6425 21.208V2.2C82.6425 1.53867 82.8132 1.03733 83.1545 0.695999C83.4958 0.354665 83.9865 0.183998 84.6265 0.183998C85.2665 0.183998 85.7572 0.354665 86.0985 0.695999C86.4612 1.03733 86.6425 1.53867 86.6425 2.2V10.488H86.1945C86.6638 9.35733 87.3892 8.504 88.3705 7.928C89.3732 7.33067 90.5038 7.032 91.7625 7.032C93.0212 7.032 94.0558 7.26667 94.8665 7.736C95.6772 8.20533 96.2852 8.92 96.6905 9.88C97.0958 10.8187 97.2985 12.0133 97.2985 13.464V21.208C97.2985 21.8693 97.1278 22.3813 96.7865 22.744C96.4452 23.0853 95.9545 23.256 95.3145 23.256C94.6745 23.256 94.1732 23.0853 93.8105 22.744C93.4692 22.3813 93.2985 21.8693 93.2985 21.208V13.656C93.2985 12.44 93.0638 11.5547 92.5945 11C92.1465 10.4453 91.4425 10.168 90.4825 10.168C89.3092 10.168 88.3705 10.5413 87.6665 11.288C86.9838 12.0133 86.6425 12.984 86.6425 14.2V21.208C86.6425 22.5733 85.9705 23.256 84.6265 23.256Z" fill="url(#paint0_linear_563_4122)"/>
<defs>
<linearGradient id="paint0_linear_563_4122" x1="-2" y1="12" x2="100" y2="12" gradientUnits="userSpaceOnUse">
<stop offset="0.32042" stop-color="#A80BB5" stop-opacity="0.5"/>
<stop offset="0.380145" stop-color="#530A9B" stop-opacity="0.6"/>
<stop offset="0.417272" stop-color="#8602ED" stop-opacity="0.7"/>
</linearGradient>
</defs>
</svg>
